<svg width="42" height="42" viewBox="0 0 42 42" fill="none" xmlns="http://www.w3.org/2000/svg">
<g clip-path="url(#clip0)">
<path d="M30.9112 12.5626L23.0837 37.3495L42 12.5626H30.9112Z" fill="#FFBD2C"/>
<path d="M6.09786 3.79504L0.0887451 11.006H10.3043L6.09786 3.79504Z" fill="#FFBD2C"/>
<path d="M35.9021 3.79504L31.6957 11.006H41.9113L35.9021 3.79504Z" fill="#FFBD2C"/>
<path d="M11.0888 12.5626H0L18.9162 37.3495L11.0888 12.5626Z" fill="#FFBD2C"/>
<path d="M22.879 3.22205L30.1772 10.5202L34.4341 3.22205H22.879Z" fill="#FFBD2C"/>
<path d="M7.56592 3.22205L11.8228 10.5202L19.121 3.22205H7.56592Z" fill="#FFBD2C"/>
<path d="M12.7211 12.5626L21 38.7778L29.2789 12.5626H12.7211Z" fill="#FFBD2C"/>
<path d="M21 3.54443L13.5385 11.006H28.4616L21 3.54443Z" fill="#FFBD2C"/>
</g>
<defs>
<clipPath id="clip0">
<rect width="42" height="42" fill="white"/>
</clipPath>
</defs>
</svg>
