<svg width="42" height="42" fill="none" xmlns="http://www.w3.org/2000/svg"><g clip-path="url(#clip0)" fill="#FFBD2C"><path d="M30.911 12.563l-7.827 24.786L42 12.563H30.911zM6.098 3.795l-6.01 7.211h10.216L6.098 3.795zm29.804 0l-4.206 7.211H41.91l-6.009-7.211zm-24.813 8.768H0l18.916 24.786-7.827-24.786zm11.79-9.341l7.298 7.298 4.257-7.298H22.88zm-15.313 0l4.257 7.298 7.298-7.298H7.566zm5.155 9.341L21 38.778l8.279-26.215H12.72zM21 3.544l-7.461 7.462h14.923L21 3.544z"/></g><defs><clipPath id="clip0"><path fill="#fff" d="M0 0h42v42H0z"/></clipPath></defs></svg>