<svg width="462" height="349" fill="none" xmlns="http://www.w3.org/2000/svg"><g clip-path="url(#clip0)"><path opacity=".1" d="M4.987 165.023c7.31 28.477 22.786 53.094 47.244 65.025 50.851 24.8 165.461 12.008 251.012-2.671 44.264-7.595 83.143-28.538 111.403-58.051l-409.66-4.303zM453.622 30.982h-46.94c-2.233 0-4.06-1.664-4.06-3.698s1.823-3.698 4.06-3.698h8.122c-2.233 0-4.061-1.665-4.061-3.698 0-2.034 1.824-3.695 4.061-3.695h-5.795c-2.233 0-4.061-1.664-4.061-3.698s1.824-3.698 4.061-3.698h24.5c-5.438-2.306-11.777-3.942-19.111-4.798-66.806-7.823-90.659-2.651-99.086 2.67a98.335 98.335 0 01-34.335 13.718c-41.218 7.75-118.302 17.074-188.17-2.988-34.723-9.966-60.53 6.901-76.002 35.038h444.969c-.581-8.184-2.319-15.743-5.511-22.356a4.259 4.259 0 01-2.64.901zM1.003 105.584a172.04 172.04 0 001.823 49.684l412.133 13.737a175.82 175.82 0 0028.633-39.783L1.003 105.584zm162.992 35.443h-8.122c2.23 0 4.061 1.665 4.061 3.699 0 2.033-1.827 3.694-4.061 3.694h-46.919c-2.23 0-4.061-1.661-4.061-3.694 0-2.034 1.827-3.699 4.061-3.699h8.122c-2.23 0-4.061-1.664-4.061-3.698s1.827-3.698 4.061-3.698h-5.803c-2.23 0-4.061-1.66-4.061-3.694s1.827-3.698 4.061-3.698h46.939c2.234 0 4.061 1.664 4.061 3.698s-1.823 3.694-4.061 3.694h5.783c2.234 0 4.061 1.664 4.061 3.698s-1.815 3.698-4.061 3.698zm297.798-88.335L11.846 62.667C6.363 75.49 2.737 89.987 1.064 105.015h452.843a162.013 162.013 0 006.538-26.991c1.348-8.834 1.888-17.375 1.348-25.332zM92.422 85.376H84.3c2.23 0 4.061 1.664 4.061 3.698s-1.827 3.698-4.06 3.698H37.363c-2.23 0-4.06-1.665-4.06-3.698 0-2.034 1.827-3.698 4.06-3.698h8.122c-2.23 0-4.06-1.66-4.06-3.695 0-2.034 1.827-3.698 4.06-3.698h-5.803c-2.23 0-4.06-1.664-4.06-3.698s1.827-3.698 4.06-3.698h46.94c2.233 0 4.06 1.664 4.06 3.698s-1.823 3.698-4.06 3.698h5.799c2.23 0 4.06 1.664 4.06 3.698s-1.83 3.695-4.06 3.695zm177.36 225.919c16.872 0 30.55-3.07 30.55-6.856 0-3.787-13.678-6.857-30.55-6.857-16.873 0-30.551 3.07-30.551 6.857 0 3.786 13.678 6.856 30.551 6.856zm70.988 19.441c30.439 0 55.115-2.024 55.115-4.522s-24.676-4.522-55.115-4.522c-30.439 0-55.114 2.024-55.114 4.522s24.675 4.522 55.114 4.522zm-221.29-4.522c30.439 0 55.114-3.07 55.114-6.857 0-3.786-24.675-6.856-55.114-6.856-30.44 0-55.115 3.07-55.115 6.856 0 3.787 24.676 6.857 55.115 6.857zm84.032-34.323c22.903 0 41.47-3.07 41.47-6.857 0-3.786-18.567-6.856-41.47-6.856s-41.47 3.07-41.47 6.856c0 3.787 18.567 6.857 41.47 6.857zM215.089 349c18.335 0 33.198-3.07 33.198-6.856 0-3.787-14.863-6.857-33.198-6.857-18.334 0-33.197 3.07-33.197 6.857 0 3.786 14.863 6.856 33.197 6.856z" fill="#FF7B22"/><path d="M234.5 121.919c-.877-5.902-6.241-19.676-6.241-19.676a21.828 21.828 0 00-.317-1.218c-3.805-13.072-9.072-14.208-9.072-14.208l-18.867-4.06c.158.099.296.227.406.378a2.64 2.64 0 00-.296.044 7.39 7.39 0 01-1.653-3.572 9.28 9.28 0 01-.093-.605 13.268 13.268 0 003.988-10.217 13.26 13.26 0 00-5.674-10.174c.89-.946.918-2.26.252-3.576-1.486-3.085-4.719-5.038-8.04-5.992-2.538-.727-5.28-.962-7.805-.166-1.434.454-2.742 1.217-4.086 1.895-2.505 1.25-5.279 2.241-7.151 4.3-.439.478-.845 1.091-.715 1.725.098.47.471.836.711 1.254.54.938.406 2.12.037 3.142-.37 1.023-.91 1.973-1.166 3.02-.256 1.048-.158 2.282.629 3.033.378.291.771.562 1.178.812.431.367.81.792 1.125 1.262a483.909 483.909 0 012.233 3.016 30.931 30.931 0 012.798 4.25c.557 1.097.987 2.266 1.73 3.248.218.287.467.548.744.78l-.22-.086a3.39 3.39 0 002.481 1.011h.114a.682.682 0 00.455-.186v.406a44.744 44.744 0 01-.065 4.44l-.175-.089a1.523 1.523 0 00-1.624.17l-17.368 13.933s-3.777 5.164-3.249 14.078l-3.046 13.368s-3.805 11.343-.877 19.441c2.928 8.099 4.625 12.731 4.625 12.731s1.17 9.203 2.928 9.954c1.759.751 2.518 1.157 2.518 1.157l.349 2.2s.118.215.325.577c1.279 2.224 6.018 10.075 8.772 9.235a35.18 35.18 0 01.446 6.45l2.725 18.289s1.901 4.972 1.783 7.579c-.118 2.606 2.217 6.32 2.217 6.32a12.073 12.073 0 00-1.169 8.505c1.112 4.871 2.517 27.312 2.517 27.312l2.031 5.44-.057 6.378a6.082 6.082 0 01-1.259 2.841c-1.316 1.429-1.218 3.081-4.39 5.034-3.171 1.953-5.181 2.691-5.181 5.277a6.8 6.8 0 01-.098 1.076c-.292 1.9-.861 2.931 4.971 3.483 6.85.65 11.419-3.816 11.419-3.816s1.007-1.826 5.75-2.565c0 0 1.625-.086 1.71-1.519.032-.495.024-1.441 0-2.484-.077-1.985-.268-4.303-.52-4.417-.317-.142-.869-2.139-1.06-2.862h1.32s1.218-9.203 0-15.162c-1.218-5.959-.118-10.185-.118-10.185l-.235-15.739s-1.625-1.737-.35-4.806c1.276-3.069 0-18.228 0-18.228s.471-5.439 1.816-6.714c1.344-1.275.065-7.969 0-8.318l2.396 8.034s1.051 15.97 3.281 18.86l.641 7.234s4.565 6.658 3.688 10.242c-.877 3.585.938 16.551.938 16.551v13.254s-2.051 5.322.812 7.234l1.218-.048c-.406.377-.719.946-1.194 1.437-.548.564-.861 2.711-1.035 4.559-.146 1.562-.195 2.906-.195 2.906s1.218 1.949 3.512 2.083c2.295.134 9.856 5.882 9.856 5.882s7.468 0 9.401-.406l.114-.028a2.544 2.544 0 001.458-1.19 3.042 3.042 0 00.349-2.188c-.24-1.141-1.145-2.391-3.151-3.455-4.991-2.63-5.734-5.094-5.734-5.094l-3.277-4.916h.467s-.289-5.209 3.277-11.054l-.232-25.75s1.462-8.854-1.051-13.66c0 0-.208-5.091 1.474-6.654 1.681-1.563-2.238-17.358-2.238-17.358s-.812-8.48-1.766-16.218c3.951 3.747 8.048-9.743 8.739-12.142h.101l-.044-.174c.028-.114.044-.171.044-.171s-.877-3.118-.235-2.484c.641.633 2.225-1.738 2.225-1.738s-.235-12.905 2.518-19.408c2.753-6.504-1.223-22.344-1.223-22.344zm-11.776 8.213l.02-.037c.406 7.88-.077 24.694-.077 24.694s-.544 2.156-1.125 4.693l-.406-15.974-.406-15.049 1.994 1.673zm-50.4-5.432s1.99 24.881 0 28.469c-.564 1.023-1.039 2.842-1.433 4.916-.658-1.725-2.051-5.776-1.552-7.924.646-2.776-1.287-10.071-1.287-10.242 0-.17-.175-4.059 1.218-7.031 1.393-2.972.48-4.258.48-4.258s1.169-4.872 2.574-3.93z" fill="url(#paint0_linear)"/><path d="M177.173 180.737c-1.734 7.62-8.63-3.901-10.201-6.665-.203-.362-.317-.573-.317-.573l.747-3.503 3.952-1.624c.625.327 1.218.713 1.77 1.153 2.165 1.701 5.385 5.31 4.049 11.212zm53.494-12.466s0 .057-.045.17c0 .049-.032.114-.052.183-.679 2.379-4.699 15.771-8.581 12.053-4.248-4.06-2.185-13.446-2.185-13.446h.029l8.934-.913 1.77 1.819.13.134z" fill="#D38884"/><path d="M225.497 234.177l.228 25.575c-3.505 5.805-3.216 10.96-3.216 10.96l-11.55.455c-2.818-1.896-.812-7.177-.812-7.177v-13.169s-1.782-12.865-.922-16.429c.861-3.564-3.618-10.149-3.618-10.149l-.633-7.181c-2.185-2.87-3.221-18.723-3.221-18.723l-2.343-8.005c.065.345 1.284 7.027 0 8.257-1.283 1.23-1.782 6.662-1.782 6.662s1.262 15.052 0 18.093c-1.263 3.041.341 4.77.341 4.77l.231 15.625s-1.092 4.193.114 10.108c1.206 5.915 0 15.053 0 15.053h-12.39l.057-6.378-2.006-5.399s-1.381-22.286-2.473-27.113a12.11 12.11 0 011.145-8.444s-2.294-3.674-2.181-6.26c.114-2.586-1.77-7.518-1.77-7.518l-2.672-18.15a35.281 35.281 0 00-1.324-10.34c-1.552-5.171-3.85-11.951-3.85-11.951l2.595.232 13.092 1.165s31.834-2.14 33.259-.362c.301.582.504 1.208.601 1.856 1.429 6.418 3.318 26.524 3.318 26.524s3.849 15.682 2.197 17.233c-1.653 1.551-1.45 6.601-1.45 6.601 2.477 4.77 1.035 13.579 1.035 13.579z" fill="#444053"/><path d="M198.586 278.6c-.089 1.425-1.677 1.51-1.677 1.51-4.654.731-5.645 2.541-5.645 2.541s-4.467 4.437-11.204 3.792c-5.726-.552-5.169-1.571-4.873-3.459.058-.351.089-.707.093-1.063 0-2.586 1.982-3.321 5.085-5.278 3.102-1.956 3.017-3.576 4.308-4.997 1.292-1.421 1.426-4.177 1.426-4.177 1.462-2.545 5.169.406 5.169.406.175.901 5.685.775 5.685.775s.731 2.931 1.109 3.102c.248.113.435 2.411.508 4.384.04 1.035.048 1.973.016 2.464z" fill="#B07473"/><path opacity=".1" d="M198.586 278.6c-.089 1.425-1.677 1.51-1.677 1.51-4.654.731-5.645 2.541-5.645 2.541s-4.467 4.437-11.204 3.792c-5.726-.552-5.169-1.571-4.873-3.459 2.558.634 7.448 1.519 10.303-.032a740.005 740.005 0 016.814-3.654l6.27-3.154c.036 1.027.044 1.965.012 2.456z" fill="#000"/><path d="M233.66 286.268a2.48 2.48 0 01-1.43 1.182l-.109.028c-1.897.406-9.227.406-9.227.406s-7.411-5.728-9.652-5.858c-2.242-.13-3.448-2.07-3.448-2.07s.045-1.332.187-2.882c.174-1.835.479-3.966 1.019-4.527.991-1.035 1.218-2.435 3.448-1.55 0 0 3.184-5.611 6.936-1.275l3.882 5.886s.731 2.436 5.649 5.079c1.965 1.055 2.842 2.297 3.09 3.43a3.026 3.026 0 01-.345 2.151z" fill="#B07473"/><path opacity=".1" d="M233.66 286.268c-.439.37-.922.768-1.43 1.182l-.109.028c-1.897.406-9.227.406-9.227.406s-7.411-5.728-9.652-5.858c-2.242-.13-3.448-2.07-3.448-2.07s.045-1.332.187-2.882c2.282.682 5.738 1.887 6.664 3.186 1.421 1.977 5.738 4.738 5.738 4.738s8.048-.776 11.622-.881a3.026 3.026 0 01-.345 2.151z" fill="#000"/><path d="M202.338 85.814l-10.599 11.2s-12.844-.946-10.603-4.737c1.141-1.933 1.32-5.976 1.219-9.491a76.249 76.249 0 00-.443-6.276s18.014-8.964 16.65-.605a13.745 13.745 0 00-.049 4.77c.767 4.222 3.825 5.139 3.825 5.139z" fill="#D38884"/><path opacity=".1" d="M198.545 75.905a13.745 13.745 0 00-.048 4.77 13.232 13.232 0 01-9.43 3.933c-2.436 0-5.072-2.001-7.041-3.158a381.21 381.21 0 01-.114-4.94s18.014-8.964 16.633-.605z" fill="#000"/><path d="M202.338 70.648A13.266 13.266 0 01192.02 83.59a13.279 13.279 0 01-14.917-7.18 13.27 13.27 0 0111.963-19.028 13.277 13.277 0 0111.957 7.512 13.267 13.267 0 011.315 5.754z" fill="#D38884"/><path opacity=".1" d="M220.397 170.239c-3.306 7.864-24.568 8.026-24.568 8.026v-8.574l-1.288-.085c.557 2.456-.779 8.444-.779 8.444-16.804 2.371-20.902-7.202-20.902-7.202l.585-3.276 13.092 1.165s31.834-2.139 33.259-.361c.302.584.505 1.214.601 1.863z" fill="#000"/><path d="M195.829 177.23v-8.574l-1.288-.081c.557 2.436-.779 8.444-.779 8.444-12.646 1.782-18.096-3.195-20.017-5.769a7.844 7.844 0 01-.885-1.429l5.133-28.863 1.218-42.478 1.84-7.454.426-3.576v-.04h.045l1.308.56 7.825 3.381 8.889-6.71.13-.094.443-.337.735.59 1.827 1.465 5.86 37.83s10.152 29.127 12.053 40.883c.077.471.138.91.187 1.32 1.255 10.733-24.95 10.932-24.95 10.932z" fill="#FF7B22"/><path d="M191.605 92.942a.756.756 0 100-1.511.756.756 0 000 1.511zm.349 6.893a.755.755 0 10.002-1.51.755.755 0 00-.002 1.51zm.756 11.16a.755.755 0 100-1.51.755.755 0 000 1.51zm1.246 12.02a.755.755 0 10.002-1.51.755.755 0 00-.002 1.51zm.756 11.286a.755.755 0 100-1.51.755.755 0 000 1.51zm.755 12.02a.756.756 0 100-1.512.756.756 0 000 1.512zm-.3 11.89a.755.755 0 100-1.51.755.755 0 000 1.51z" fill="#67647E"/><path opacity=".1" d="M181.981 145.156s-.845 11.054-2.396 14.269-2.242 12.235-2.242 12.235l-3.602-.406a7.844 7.844 0 01-.885-1.429l5.133-28.863 1.218-42.478 1.844-7.458.426-3.576.049-.02a1.455 1.455 0 011.283.02l.171.09a9.12 9.12 0 00-.146.45c-1.405 4.396-1.929 12.499-1.929 12.499s2.03 14.821 2.241 21.714c.212 6.893-1.165 22.953-1.165 22.953z" fill="#000"/><path opacity=".1" d="M173.124 169.537a2.055 2.055 0 01-.138.268c-1.397 2.359-4.938 3.857-6.014 4.267-.203-.362-.317-.573-.317-.573l.747-3.503 3.952-1.624c.626.331 1.219.721 1.77 1.165z" fill="#000"/><path d="M163.553 113.126l-3.278 1.953-2.984 13.27s-3.736 11.258-.865 19.299c2.871 8.042 4.54 12.646 4.54 12.646s1.149 9.134 2.875 9.881c1.726.747 2.469 1.148 2.469 1.148l.345 2.184s4.678-1.587 6.331-4.384c1.653-2.797-1.218-9.743-1.218-9.743s-2.469-5.918-1.836-8.675c.634-2.756-1.267-9.994-1.267-10.149 0-.154-.17-4.023 1.219-6.982 1.388-2.959.462-4.222.462-4.222l-.865-8.444-5.928-7.782z" fill="#67647E"/><path opacity=".1" d="M220.669 167.755s-8.678 3.272-11.435.406c-2.758-2.866-2.473-16.315-2.473-16.315s-2.64-24.816-4.309-28.892c-1.669-4.075-.812-33.49-.812-33.49s-1.121-3.804-2.1-4.799a1.06 1.06 0 00-.207-.166l.337.073 1.178.251 1.827 1.466 5.86 37.83s10.152 29.127 12.053 40.884l.081 2.752z" fill="#000"/><path opacity=".1" d="M230.667 168.616h-.097c-1.093.142-10.733 1.307-10.774-.698a5.77 5.77 0 01.037-.695l8.934-.913 1.77 1.819c.033.117.057.219.081.3l.049.187z" fill="#000"/><path d="M221.416 99.835l6.335 3.305s5.279 13.664 6.124 19.522c0 0 3.911 15.694 1.218 22.149-2.692 6.454-2.469 19.266-2.469 19.266s-1.551 2.355-2.184 1.725c-.634-.629.231 2.469.231 2.469s-10.83 1.437-10.875-.69c-.045-2.128 2.485-12.293 2.485-12.293s.691-24.182-.288-27.974c-.979-3.791-.577-27.479-.577-27.479z" fill="#67647E"/><path opacity=".1" d="M202.513 125.593s-3.566 8.728-4.715 9.304c-1.149.577.232 2.871.232 2.871s6.493-9.073 4.483-12.175zm-2.128-30.617c.04-.166-4.252 4.21-5.401 4.872-1.149.661 4.195-.04 5.401-4.872zm-11.951 29.927s-6.551 4.234-5.686 5.911c.865 1.676 5.686-5.911 5.686-5.911zm11.894 61.806s5.576 3.585 14.25 4.465l-14.25-4.465zm-13.389 8.618s5.17 6.496 7.529 6.662c2.36.166-7.529-6.662-7.529-6.662zm7.241 25.453c-.232.114-2.932 5.858-5.685 6.033-2.754.174 5.685-6.033 5.685-6.033zm23.959 12.585s5.125-1.149 6.266 2.525c0-.012-.345-1.161-6.266-2.525zm-3.448 21.012s6.21-1.267 7.529.459c1.32 1.725-7.529-.459-7.529-.459zm-17.563 2.939c0 .057-6.319 1.267-6.091 2.07.227.804 6.741.691 6.972-.576a1.206 1.206 0 00-.128-.931 1.215 1.215 0 00-.753-.563zm15.496 5.448s10.384-1.267 9.747.917c-.638 2.184-9.747-.917-9.747-.917zm-54.359-127.867c.057.171 6.839 1.092 7.757 3.276 0 0-6.664-3.105-7.716-3.105m9.498 17.578s-5.632 1.782-5.23 4.465c.402 2.683-.573-1.242 5.23-4.465zm-2.623 13.672s2.051-2.813 4.004-2.298c1.953.516-4.004 2.298-4.004 2.298zM197.343 60.28a3.179 3.179 0 01-.658.49c-1.624.947-2.071 2.404-2.842 4.085-.719 1.538-1.511 3.166-2.961 4.039-1.872 1.128-4.337.714-6.282 1.697a4.874 4.874 0 00-2.599 4.802c.124.748.309 1.483.553 2.2.442 1.553.642 3.165.592 4.778a.675.675 0 010 .143 13.273 13.273 0 01-6.86-8.337 13.254 13.254 0 011.609-10.675 13.271 13.271 0 0119.464-3.222h-.016z" fill="#000"/><path d="M196.998 56.285c-1.458-3.06-4.629-5.001-7.89-5.947-2.49-.719-5.194-.954-7.663-.162-1.409.446-2.688 1.217-4.008 1.88-2.461 1.241-5.166 2.224-7.017 4.266-.435.475-.813 1.084-.703 1.713.093.467.459.812.694 1.242.532.934.407 2.107.037 3.122-.37 1.015-.893 1.956-1.145 3-.252 1.043-.155 2.265.617 3.008.345.329.788.536 1.161.812.423.364.793.785 1.101 1.25l2.193 2.996a30.408 30.408 0 012.745 4.218c.544 1.088.967 2.249 1.697 3.219.731.97 1.868 1.75 3.079 1.644a.598.598 0 00.487-.231.64.64 0 00.061-.305 15.6 15.6 0 00-.581-4.762 13.769 13.769 0 01-.552-2.2 4.886 4.886 0 012.599-4.802c1.949-.983 4.414-.569 6.282-1.693 1.454-.877 2.246-2.505 2.96-4.06.784-1.68 1.219-3.138 2.843-4.083 1.624-.946 1.811-2.513 1.003-4.125z" fill="#585268"/><path opacity=".1" d="M191.053 273.172s2.03 2.586 1.503 4.06c-.528 1.474-1.503-4.06-1.503-4.06zm27.472 6.471s.451-3.467 2.258-3.499c1.807-.033 1.896-.187 3.277.345 1.381.532 2.676 1.356 2.262 1.478-.414.121-2.376-1.981-4.39-.906a14.52 14.52 0 00-3.407 2.582zM184.994 95.699l5.685-3.983s-8.316-4.912-9.307-4.221c-.991.69-1.673 6.9-1.673 6.9l5.295 1.304z" fill="#000"/><path d="M184.97 95.443l5.685-4.06s-8.317-4.911-9.308-4.221c-.99.69-1.673 7.242-1.673 7.242l5.296 1.04z" fill="#E1E7EF"/><path d="M184.97 95.443l5.685-4.06s-8.317-4.911-9.308-4.221c-.99.69-1.673 7.242-1.673 7.242l5.296 1.04z" fill="#FF7B22"/><path d="M182.29 87.194l-.171-.085a1.475 1.475 0 00-1.596.166l-17.056 13.831s-3.707 5.127-3.192 13.973l10.059 14.245s1.149-4.823 2.526-3.905c0 0 1.953 24.702 0 28.262-1.953 3.56-2.814 16.887-2.814 16.887l6.607.747s.69-9.02 2.242-12.235c1.551-3.215 2.396-14.269 2.396-14.269s1.397-16.06 1.165-22.953c-.231-6.893-2.242-21.714-2.242-21.714s.565-8.687 2.076-12.95z" fill="#67647E"/><path opacity=".1" d="M199.28 93.182l-7.086-2.623s9.023-9.88 10.152-4.4l-3.066 7.023z" fill="#000"/><path d="M199.28 92.837l-7.086-2.623s9.023-9.88 10.152-4.4l-3.066 7.023z" fill="#E1E7EF"/><path d="M199.28 92.837l-7.086-2.623s9.023-9.88 10.152-4.4l-3.066 7.023z" fill="#FF7B22"/><path opacity=".1" d="M199.049 84.43a.405.405 0 01.292.065l-.292-.065z" fill="#000"/><path d="M199.731 83.744l18.802 4.06s5.174 1.148 8.91 14.13c3.736 12.983-5.117 28.888-5.117 28.888l-1.953-1.661.978 37.912s-8.678 3.272-11.435.406c-2.758-2.866-2.469-16.327-2.469-16.327s-2.644-24.812-4.313-28.892c-1.669-4.08-.812-33.487-.812-33.487s-1.535-5.257-2.591-5.03z" fill="#67647E"/><path opacity=".1" d="M216.933 107.902c-.264.243-.573 11.715.577 20.447a111.358 111.358 0 003.248 15.739l-1.705-34.981s-1.316-1.952-2.12-1.205zm-2.298-9.882c.458.29 2.473 5.055 1.551 7.008-.922 1.952-1.551-7.007-1.551-7.007zm-17.747-41.735a10.372 10.372 0 00-4.134-4.327 9.828 9.828 0 013.099 3.653c.812 1.624.573 3.248-1.007 4.137-1.58.889-2.071 2.403-2.843 4.084-.719 1.538-1.51 3.166-2.964 4.06-1.868 1.128-4.333.71-6.282 1.692a4.904 4.904 0 00-2.599 4.806c.124.747.311 1.481.556 2.197a15.71 15.71 0 01.593 4.778.654.654 0 01-.065.304.575.575 0 01-.483.232 2.802 2.802 0 01-1.418-.264 3.305 3.305 0 002.437.954.478.478 0 00.544-.536 15.553 15.553 0 00-.589-4.778 13.341 13.341 0 01-.556-2.2 4.886 4.886 0 012.599-4.803c1.949-.982 4.414-.568 6.282-1.693 1.454-.877 2.246-2.504 2.96-4.06.784-1.68 1.219-3.137 2.843-4.083 1.624-.946 1.84-2.541 1.027-4.153z" fill="#000"/><path d="M312.571 107.264c-5.596-.109-10.534-4.059-13.332-8.886a8.924 8.924 0 01-1.348-3.804 4.38 4.38 0 01.154-.909c.171-.453.307-.919.406-1.392a2.35 2.35 0 000-.569v-.032c.134-1.027-.471-2.03-1.218-2.732-.747-.703-1.685-1.218-2.465-1.916-2.404-2.111-3.135-5.497-3.179-8.72v-.17c.028-1.38.138-2.765.125-4.145a17.35 17.35 0 00-.101-2.347c-.232-1.952-.975-3.941-2.51-5.188-4.004-3.247-10.737.134-14.883-2.935-1.007-.75-1.823-1.86-3.046-2.151-.921-.224-1.88.077-2.781.377-3.054 1.007-6.461 2.33-7.655 5.277-.682 1.693-.491 3.626-1.117 5.339-.406 1.149-1.182 2.135-1.746 3.223a5.055 5.055 0 00-.65 2.691c-.05.487.018.979.199 1.433a3.65 3.65 0 00.995 1.425 4.697 4.697 0 01-.593.95c-.779.954-1.977 1.624-2.79 2.574-1.502 1.742-1.445 4.108-.706 6.154.739 2.046 2.075 3.91 2.997 5.903.406.864.715 1.83.304 2.691-.288.597-.885 1.052-1.348 1.567a4.922 4.922 0 00-1.218 2.72c-9.141 2.087-9.149 9.43-9.149 9.43l-4.938 12.414s-.792 2.091-1.722 4.851l-5.844-1.047 4.061 6.796c-.767 2.768-1.312 5.334-1.133 6.625 0 0-1.815 8.525 1.413 10.015l7.123 3.203c.309.189.64.337.987.442l.288.13a.77.77 0 00.666 0h.098a.97.97 0 00.406-.061.811.811 0 00.357-.386.134.134 0 010-.04l2.132-.617 1.807 2.139a32.409 32.409 0 002.392 1.514l-2.798 27.775s-.451 36.942-1.815 45.361c-.504 3.118-.508 5.245-.317 6.69l-.053.09c.337 2.375 1.219 2.841 1.219 2.841v-.032a.235.235 0 00.052.032c.411-1.078.9-2.125 1.462-3.134v.609c-.028 3.134-.126 7.523-.45 10.377-.553 4.871 1.413 20.926 1.413 20.926l.678 14.614a13.511 13.511 0 01-1.665 7.121c-1.624 2.919-3.7 7.027-3.85 8.85a1.828 1.828 0 000 .296l-3.484 4.189s-1.36 2.103 1.714 2.952c1.652.458 4.503 0 6.794-.54a4.544 4.544 0 003.52-4.417 15.639 15.639 0 012.875-5.517l.573 3.365 3.833.95.492-9.223c.198-.517.288-1.07.264-1.624.755-6.56-1.779-5.971-1.779-5.971a.351.351 0 01.122.227l-.122-.223c-1.555-3.069-.812-8.119-.812-8.119s2.03-14.614 2.725-18.475c.499-2.728.292-11.659.126-16.644 0-.207 0-.406-.021-.605 5.946-.077 13.231-.276 18.343-.771v.601l-.942 34.526a18.937 18.937 0 01-1.323 6.422c0 .041-.029.077-.045.118a27.973 27.973 0 00-1.872 9.048l-.439 10.961v.304c-.763.293-1.969 1.141-2.002 3.601-.053 3.605 6.303 2.403 6.303 2.403 6.351 0 6.404-6.608 6.404-6.608s.199-6.061.503-10.117c.305-4.055-.958-3.162-.958-3.162l-.098 11.537v.089-10.112l.098-1.465v-.354l.8-11.898s5.852-19.827 6.757-23.63c.646-2.704.378-10.847.167-15.349 0-.207 0-.406-.033-.597a47.643 47.643 0 014.061-.179h.297s-.301-31.842-1.06-43.842c-.76-12-1.966-22.981-4.991-26.286-1.828-1.997-4.374-8.163-6.092-12.73a63.781 63.781 0 0011.196 3.653c9.58 2.006 8.268-6.308 8.268-6.308l-.97-15.723h.065a80.232 80.232 0 00-1.056-12.292c-.508-3.118-1.283-6.341-2.469-8.931 1.04-.406 2.067-.84 3.074-1.287 2.603-1.149 5.535-2.776 5.909-5.582h-.126c.05-.202.083-.408.097-.617zm-59.382 22.734c.02 1.623-.041 4.441-.138 7.554l-3.042-4.059 3.05-4.945.13 1.45zm42.022 14.387l-5.068-1.624a22.692 22.692 0 013.131-3.873l.438-.406-.158.033.244-.224.146-.032-.232.223.277-.057a8.645 8.645 0 001.725 3.471c1.82 1.985-.499 2.489-.499 2.489h-.004z" fill="url(#paint1_linear)"/><path d="M264.425 290.523l-.593 11.237-3.78-.946-.796-4.673 5.169-5.618z" fill="#A27772"/><path opacity=".1" d="M264.425 290.523l-.593 11.237-3.78-.946-.796-4.673 5.169-5.618z" fill="#000"/><path d="M278.301 303.249l5.767 1.194 4.276-3.775v-10.64l.097-1.454v-.353l.796-11.825s5.771-19.685 6.668-23.464c.634-2.68.37-10.766.159-15.236-.086-1.83-.159-3.056-.159-3.056l-12.731-3.082-.268 9.784-.93 34.278a18.995 18.995 0 01-1.303 6.378l-.045.118a27.903 27.903 0 00-1.848 8.979l-.43 10.9v.3l-.049.954z" fill="#CC818C"/><path opacity=".1" d="M278.301 303.249l5.767 1.194 4.276-3.775v-.906a1.215 1.215 0 01-.613.975l-.061.036a11.496 11.496 0 01-6.473 1.279l-2.25-.191a2.121 2.121 0 00-.597.146v.301l-.049.941z" fill="#000"/><path d="M287.67 301.069l.061-.032a1.221 1.221 0 00.621-1.056l.093-11.451s1.243-.889.943 3.138c-.301 4.027-.496 10.043-.496 10.043s-.049 6.56-6.315 6.56c0 0-6.266 1.194-6.217-2.387.049-3.58 2.587-3.727 2.587-3.727l2.25.195c2.237.216 4.488-.23 6.473-1.283z" fill="#B07473"/><path d="M248.267 300.814c.146 2.586 7.756 1.092 7.756 1.092l5.121-9.938s4.276-3.284 2.136-6.166a4.652 4.652 0 01-.313-.492l-.02-.024a3.144 3.144 0 01-.126-.231c-1.535-3.045-.78-8.038-.78-8.038s1.986-14.517 2.685-18.345c.491-2.704.288-11.574.126-16.534a304.448 304.448 0 00-.126-3.447l-12.634-3.382v3.768c-.028 3.113-.126 7.469-.446 10.303-.545 4.818 1.392 20.776 1.392 20.776l.671 14.521a13.445 13.445 0 01-1.625 7.068c-1.584 2.898-3.655 6.982-3.797 8.789a1.742 1.742 0 00-.02.28z" fill="#CC818C"/><path opacity=".1" d="M248.267 300.814c.146 2.586 7.756 1.092 7.756 1.092l5.121-9.938s4.276-3.284 2.136-6.166a4.652 4.652 0 01-.313-.492c-.069 1.506-1.721 5.278-1.721 5.278s-4.228 8.456-5.572 10.392c-1.344 1.936-7.184-.361-7.403-.442-.009.091-.01.184-.004.276z" fill="#000"/><path d="M262.821 285.042s2.502-.58 1.754 5.931a4.19 4.19 0 01-1.977 3.723c-1.791 1.124-4.552 3.544-5.949 8.249a4.501 4.501 0 01-3.472 4.384c-2.258.528-5.073.991-6.701.536-3.033-.844-1.689-2.931-1.689-2.931l3.48-4.128s6.067 2.386 7.407.446c1.34-1.94 5.572-10.388 5.572-10.388s2.318-5.274 1.575-5.822z" fill="#B07473"/><path opacity=".1" d="M283.174 232.764l-.268 9.784c3.391-.329 5.82-.788 6.234-1.433.897-1.389 4.154-1.973 6.924-2.213a270.419 270.419 0 00-.159-3.057l-12.731-3.081zm-31.082 7.502a4.649 4.649 0 011.393-1.681c1.34-.742 1.194 4.774 1.194 4.774s4.467.041 10.173-.032c-.065-2.062-.126-3.451-.126-3.451l-12.634-3.377s.025 1.567 0 3.767z" fill="#000"/><path d="M250.651 241.573s1.494-4.059 2.842-4.782c1.349-.723 1.194 4.77 1.194 4.77s32.82.3 34.461-2.237c1.641-2.537 11.188-2.387 11.188-2.387s-.297-31.615-1.044-43.542c-.747-11.927-1.937-22.819-4.922-26.099-1.929-2.123-4.674-8.991-6.371-13.571a175.82 175.82 0 01-1.535-4.323l-31.326 1.786-.256 2.537-3.326 33.256s-.446 36.686-1.791 45.036c-1.344 8.351.886 9.556.886 9.556z" fill="#444053"/><path opacity=".1" d="M286.598 239.324c1.624-2.533 11.187-2.387 11.187-2.387s-.296-31.615-1.043-43.542c-.747-11.927-1.937-22.819-4.922-26.099-1.937-2.131-4.674-8.991-6.372-13.571a163.106 163.106 0 01-1.486-4.185l2.437-.138s.613 1.823 1.539 4.323c1.697 4.58 4.438 11.448 6.367 13.571 2.985 3.28 4.179 14.168 4.922 26.099.743 11.931 1.048 43.542 1.048 43.542s-9.547-.146-11.192 2.387c-1.401 2.164-25.551 2.265-32.56 2.245 8.995-.02 28.808-.288 30.075-2.245zm-35.655-2.533c.605-.337.906.597 1.056 1.729a23.49 23.49 0 00-1.409 3.053s-.865-.467-1.219-2.841c.496-.849 1.044-1.649 1.572-1.941z" fill="#000"/><path d="M260.332 72.909c-2.169 2.955.024 7.157-2.303 10.03-.767.95-1.949 1.625-2.749 2.558-1.482 1.73-1.425 4.08-.698 6.11.727 2.03 2.03 3.88 2.956 5.862.406.856.707 1.818.3 2.671-.284.593-.873 1.043-1.332 1.555-1.494 1.668-1.535 3.986-.73 5.951.804 1.965 2.339 3.654 3.853 5.318.597.653 1.353 1.376 2.348 1.356a3.265 3.265 0 001.474-.483 15.017 15.017 0 006.838-19.604c-1.259-3.016-3.358-5.906-3.379-9.093 0-2.529 1.3-4.944 1.531-7.461.281-3.061-1.53-7.92-5.226-9.256.244 1.965-1.783 2.968-2.883 4.486z" fill="#585268"/><path opacity=".1" d="M260.332 72.909c-2.169 2.955.024 7.157-2.303 10.03-.767.95-1.949 1.625-2.749 2.558-1.482 1.73-1.425 4.08-.698 6.11.727 2.03 2.03 3.88 2.956 5.862.406.856.707 1.818.3 2.671-.284.593-.873 1.043-1.332 1.555-1.494 1.668-1.535 3.986-.73 5.951.804 1.965 2.339 3.654 3.853 5.318.597.653 1.353 1.376 2.348 1.356a3.265 3.265 0 001.474-.483 15.017 15.017 0 006.838-19.604c-1.259-3.016-3.358-5.906-3.379-9.093 0-2.529 1.3-4.944 1.531-7.461.281-3.061-1.53-7.92-5.226-9.256.244 1.965-1.783 2.968-2.883 4.486zm24.048 107.5c-4.341.227-8.426 2.094-12.227 4.205s-7.48 4.502-11.569 6m21.1.021a17.896 17.896 0 00-11.269 5.48c-1.056 1.116-1.965 2.367-3.066 3.438a13.605 13.605 0 01-6.043 3.422m21.267-4.558a19.7 19.7 0 00-9.064 5.464c-.666.718-1.271 1.485-1.937 2.204-3.594 3.857-8.67 5.903-13.571 7.839" fill="#000"/><path d="M282.204 90.495c.096 3.467.394 6.926.893 10.359.406 2.436.975 4.628 1.791 5.599 2.388 2.841-11.634 6.637-11.634 6.637l-8.281-6.414s6.563-6.041 3.505-11.931c-3.058-5.89 13.726-4.25 13.726-4.25z" fill="#CC818C"/><path opacity=".1" d="M254.874 153.725h33.117c-.922-2.5-1.535-4.323-1.535-4.323l-31.326 1.786-.256 2.537z" fill="#000"/><path d="M252.742 153.129h35.407c-.995-3.56 0-6.853 1.417-9.386a20.745 20.745 0 013.708-4.806l.244-.224 12.361-2.736.666-.146s.101-22.469-7.858-25.554c-7.959-3.086-12.731-7.255-12.731-7.255L275.02 106.4l-8.057-4.06c-2.586 2.781-9.449 1.689-9.449 1.689-11.237 1.291-11.237 9.743-11.237 9.743s6.563 15.308 7.062 15.308c.499 0-.597 24.049-.597 24.049z" fill="#FF7B22"/><path opacity=".1" d="M264.965 138.843s-7.22-1.599-9.677-4.396l9.677 4.396zm36.406-8.383l-8.373 6.861c.06.546.153 1.088.276 1.624l.243-.223 12.362-2.737-4.508-5.525zm-22.672 20.282s1.832 1.031 4.638 2.387h4.812c-.995-3.56 0-6.853 1.417-9.386l-8.483-2.744c2.887 2.683-2.384 9.743-2.384 9.743z" fill="#000"/><path d="M251.248 111.076l-4.971 2.684-4.873 12.328s-5.072 13.518-4.577 17.099c0 0-1.786 8.452 1.393 9.942l8.284 3.751a.778.778 0 00.875-.179.773.773 0 00.12-.885c-1.181-2.237-2.481-5.736-.406-7.66l-2.388-4.969 8.63-14.119 2.883-4.871-4.97-13.121z" fill="#FF7B22"/><path opacity=".1" d="M262.305 136.022c.431 1.754 1.885 4.465 6.697 5.476l5.279 4.324 5.616 2.545 2.291 1.035.97-7.011-2.205-1.218-2.57-1.404s-5.799-10.502-14.981-6.089a2.026 2.026 0 00-1.097 2.342z" fill="#000"/><path d="M262.606 135.425c.43 1.758 1.88 4.466 6.692 5.476l5.279 4.324 5.621 2.545 2.286 1.035.971-7.01-2.205-1.218-2.551-1.393s-5.803-10.502-14.984-6.069a2.03 2.03 0 00-1.109 2.31z" fill="#CC818C"/><path opacity=".1" d="M272.953 99.588c7.085 0 12.828-5.742 12.828-12.824 0-7.083-5.743-12.824-12.828-12.824-7.085 0-12.828 5.741-12.828 12.824 0 7.082 5.743 12.824 12.828 12.824z" fill="#000"/><path d="M272.953 99.291c7.085 0 12.828-5.741 12.828-12.823 0-7.083-5.743-12.825-12.828-12.825-7.085 0-12.828 5.742-12.828 12.825 0 7.082 5.743 12.823 12.828 12.823z" fill="#CC818C"/><path opacity=".1" d="M280.9 113.869l-3.858-7.494s5.645-2.281 6.055-4.924c.41-2.643 5.409 3.098 4.329 5.001-1.08 1.904-6.526 7.417-6.526 7.417z" fill="#000"/><path d="M280.9 113.272l-3.858-7.493s5.645-2.282 6.055-4.925c.41-2.642 5.409 3.102 4.329 5.002s-6.526 7.416-6.526 7.416z" fill="#FF7B22"/><path d="M249.327 132.632l21.315 28.648s-7.857 4.275-18.68-3.377l-4.674-5.57-13.344-22.486 15.383 2.785z" fill="#F6F8FB"/><path d="M245.132 148.209l1.941-.053s11.858-11.505 14.769-5.684c2.912 5.822-7.386 11.262-7.386 11.262l-3.131 1.688-4.081 1.218-2.612-3.503.5-4.928z" fill="#CC818C"/><path opacity=".1" d="M247.995 154.424c.179.661.349 1.392.049 2.005a.814.814 0 01-.354.386.906.906 0 01-.406.057 4.087 4.087 0 01-2.676-1.324 12.21 12.21 0 01-1.734-2.509c-.528-.921-1.076-1.94-.889-2.987.211-1.141 1.218-1.933 2.205-2.574 1.965-1.299 2.03.215 2.461 1.888.43 1.672.893 3.369 1.344 5.058z" fill="#000"/><path d="M247.698 154.424c.175.661.35 1.392.049 2.005a.812.812 0 01-.353.386.922.922 0 01-.406.057 4.062 4.062 0 01-2.676-1.324 11.983 11.983 0 01-1.738-2.509c-.528-.921-1.077-1.94-.886-2.987.207-1.141 1.219-1.933 2.201-2.574 1.97-1.299 2.031.215 2.465 1.888.435 1.672.89 3.369 1.344 5.058z" fill="#FF7B22"/><path opacity=".1" d="M253.339 129.068l.991-1.677-.865 3.114-.126-1.437zm26.875 18.702l2.286 1.035.971-7.01-2.205-1.218c1.523 1.745.191 4.973-1.052 7.193zm9.178-8.139s-7.383.45-10.518-1.563l10.518 1.563z" fill="#000"/><path opacity=".1" d="M288.474 144.34a20.81 20.81 0 013.707-4.811c.352-.22.717-.418 1.093-.592l11.508-2.363.666-.146s.102-22.469-7.853-25.555a47.79 47.79 0 01-12.41-6.986l.873-.268s4.771 4.173 12.731 7.254c7.959 3.081 7.853 25.555 7.853 25.555h-1.194l-11.776 2.253s-.508.491-.662.633a22.834 22.834 0 00-3.765 4.977 12.472 12.472 0 00-.986 9.434h-1.219c-.982-3.56.033-6.852 1.434-9.385zm-31.431-39.662c.19-.028.373-.056.572-.077.808.115 1.621.181 2.437.199a22.07 22.07 0 01-3.009-.122zm16.881 2.318l-7.286-3.686c.145-.118.281-.247.407-.385l7.602 3.844-.723.227z" fill="#000"/><path d="M301.66 129.847l4.873 5.968.995 16.205s1.291 8.249-8.155 6.26c-9.445-1.989-20.377-8.135-20.377-8.135s5.279-7.06 2.388-9.743l13.526 4.376s2.287-.499.496-2.484c-1.791-1.985-2.108-5.57-2.108-5.57l8.362-6.877z" fill="#FF7B22"/><path opacity=".1" d="M303.861 146.966l2.684 3.082a3.862 3.862 0 01-1.782-1.158 3.86 3.86 0 01-.902-1.924zm-4.577-.499l4.179 5.367-2.088.499-2.091-5.866zm-41.653-65.886c-.459-1.124-.105-2.435.447-3.495s1.312-2.062 1.726-3.203c.613-1.697.426-3.617 1.096-5.277 1.182-2.943 4.54-4.259 7.55-5.278.889-.296 1.835-.592 2.745-.373 1.218.288 2.01 1.392 3.005 2.135 4.085 3.045 10.729-.308 14.68 2.915 1.511 1.218 2.246 3.211 2.473 5.147.227 1.937 0 3.901-.024 5.854-.065 3.418.576 7.157 3.135 9.422.771.682 1.681 1.194 2.436 1.9.756.706 1.348 1.693 1.219 2.716-.1.47-.236.931-.407 1.38-.507 1.782.252 3.654 1.178 5.277 2.761 4.779 7.63 8.716 13.149 8.826-.369 2.785-3.248 4.4-5.827 5.541-3.249 1.458-6.709 2.886-10.286 2.704-3.578-.183-7.31-2.472-7.935-5.996-.216-1.218-.187-2.683-1.219-3.317-.633-.385-1.453-.288-2.136-.576-.986-.406-1.474-1.514-1.799-2.533a22.85 22.85 0 01-1.06-6.495c-.044-2.615.301-5.469-1.181-7.62-1.373-1.993-3.809-3.004-5.393-4.835-1.462-1.697-3.05-3.743-5.446-4.06-3.314-.466-10.168 4.035-12.126-.759z" fill="#000"/><path d="M257.631 79.984c-.459-1.124-.105-2.435.447-3.495s1.312-2.062 1.726-3.203c.613-1.697.426-3.617 1.096-5.277 1.182-2.947 4.54-4.263 7.55-5.277.889-.297 1.835-.593 2.745-.374 1.218.288 2.01 1.393 3.005 2.135 4.085 3.045 10.729-.308 14.68 2.915 1.511 1.218 2.246 3.211 2.473 5.152.227 1.94 0 3.897-.024 5.85-.065 3.418.576 7.156 3.135 9.422.771.681 1.681 1.193 2.436 1.9.756.706 1.348 1.692 1.218 2.715a9.21 9.21 0 01-.406 1.38c-.507 1.782.252 3.654 1.178 5.278 2.77 4.762 7.618 8.711 13.137 8.821-.369 2.785-3.249 4.401-5.827 5.545-3.249 1.454-6.709 2.883-10.287 2.7-3.577-.183-7.309-2.472-7.935-5.996-.215-1.218-.186-2.683-1.218-3.317-.633-.385-1.454-.288-2.136-.576-.987-.406-1.474-1.514-1.799-2.533a22.777 22.777 0 01-1.06-6.495c-.044-2.615.301-5.469-1.181-7.62-1.373-1.993-3.81-3.004-5.393-4.835-1.462-1.697-3.05-3.743-5.446-4.06-3.302-.462-10.156 4.048-12.114-.755z" fill="#585268"/><path opacity=".1" d="M266.736 112.94l7.354-5.968s-5.035-2.728-5.636-5.054-4.63 1.104-4.22 3.191c.411 2.086 2.502 7.831 2.502 7.831z" fill="#000"/><path d="M267.024 112.042l7.354-5.963s-5.035-2.728-5.612-5.054c-.576-2.326-4.629 1.104-4.219 3.191.41 2.086 2.477 7.826 2.477 7.826z" fill="#FF7B22"/><path opacity=".1" d="M274.667 111.657a.585.585 0 100-1.17.585.585 0 000 1.17zm0 3.247a.584.584 0 10.001-1.169.584.584 0 00-.001 1.169zm0 3.244a.585.585 0 100-1.17.585.585 0 000 1.17zM260.6 71.695c.581-1.595.455-3.386.999-4.993a5.42 5.42 0 00-.621 1.145c-.675 1.676-.484 3.596-1.101 5.277l-.041.097a9.26 9.26 0 00.764-1.526zm46.396 40.185c-3.249 1.453-6.709 2.882-10.287 2.7-3.577-.183-7.309-2.473-7.935-5.992-.215-1.218-.186-2.688-1.218-3.321-.633-.386-1.454-.288-2.136-.576-.987-.406-1.474-1.515-1.799-2.534a22.767 22.767 0 01-1.06-6.495c-.044-2.61.305-5.464-1.177-7.62-1.377-1.993-3.814-3-5.397-4.834-1.462-1.693-3.05-3.743-5.446-4.06-3.285-.446-10.152 4.06-12.093-.739a3.776 3.776 0 01.125-2.772c-.142.24-.28.479-.406.722-.552 1.08-.901 2.375-.442 3.5 1.953 4.79 8.808.288 12.093.738 2.396.325 3.984 2.375 5.446 4.06 1.584 1.835 4.02 2.842 5.393 4.839 1.486 2.151 1.137 5.005 1.181 7.616a22.778 22.778 0 001.06 6.495c.325 1.023.812 2.119 1.799 2.533.682.288 1.503.195 2.136.576 1.048.634 1.02 2.115 1.219 3.321.633 3.52 4.361 5.809 7.935 5.992 3.573.182 7.017-1.242 10.286-2.7 2.355-1.047 4.978-2.496 5.685-4.871-1.129 1.542-3.127 2.606-4.962 3.422z" fill="#000"/><path d="M378.764 134.792c-8.597-4.945-11.846-6.162-11.862-6.162l-.179-.126a7.158 7.158 0 01-2.164-2.736 5.786 5.786 0 010-.589.271.271 0 000 .057c.134-2.619 1.998-5.001 3.764-7.08l4.52-5.314a5.221 5.221 0 001.165-1.843 4.19 4.19 0 00.122-1.132v-.463c-.024-1.32-.061-2.643-.109-3.962-.041-1.153-.337-2.607-1.491-2.842-.601-.122-1.397.093-1.713-.406a.988.988 0 01-.078-.686.272.272 0 000 .057v-.065c.224-.891.367-1.8.427-2.716a3.695 3.695 0 00-.187-1.376c-.666-1.912-2.968-2.7-5.003-3.061-2.034-.361-4.317-.67-5.592-2.261a16.605 16.605 0 00-1.112-1.53 4.394 4.394 0 00-2.08-1.028 11.78 11.78 0 00-7.565.658c-.983.438-1.97 1.031-3.05.966-1.08-.065-2.079-.844-3.184-1.03-1.786-.305-3.496 1.006-4.377 2.56a6.25 6.25 0 00-.812 3.02v.18a4.414 4.414 0 001.161 3.085c.772.812 1.917 1.347 2.238 2.399.129.426.097.889.215 1.323.012.054.029.107.049.159l-.057.077a13.385 13.385 0 00-2.843 8.257c.02 2.906.964 5.731 2.696 8.066a13.699 13.699 0 006.936 4.924v.406c0 1.624-.467 3.317-1.868 4.547l-12.178 4.863s-7.342-.873-9.99 9.853a18.294 18.294 0 00-.455 5.439c.098 1.624-.126 4.466-2.03 8.148-3.009 5.894-2.323 19.424 3.833 20.764 5.811 1.267 8.085.739 8.325.678v.235c-.097 2.542-1.019 24.439-4.369 27.086-.926.734-.756 1.217 0 1.562 0 0 0 .143-.021.406-.101 1.624-.617 7.713-2.842 11.172-2.603 4.019-2.331 27.199-2.331 27.199l-1.775 13.664s1.092 8.44 0 9.913c-.979 1.312-2.278 32.533-2.55 39.305h-.114a3.3 3.3 0 00-2.631 1.623c-1.438 2.335-6.473 6.65-6.473 6.65-1.093 1.551-5.133 3.036-7.269 3.735a4.489 4.489 0 00-.813.357 4.33 4.33 0 00-1.835 1.932 2.068 2.068 0 00-.195 1.624c.544 1.336 11.902 2.277 14.778.934 2.257-1.052 11.208-2.436 14.923-2.98a3.062 3.062 0 002.656-2.655 1.762 1.762 0 00-.341-1.327c-.711-.881-1.072-3.289-1.218-4.872.302-.123.584-.289.836-.495a35.662 35.662 0 012.031-14.334c2.737-7.234 3.557-20.631 2.875-29.338 0 0 8.345-35.902 14.916-39.252.101.13 3.289 4.218 3.695 16.88.406 12.86 5.06 21.3 5.06 21.3s-2.055 21.836 0 30.008l-2.684 12.889a4.92 4.92 0 01-.325-.296s.081.357.191.929l-.057.276.118.025c.304 1.623.755 4.42.568 6.089-.106.938-.37 2.224-.548 3.487-.284 1.985-.362 3.909.682 4.331 1.714.691 11.777 1.624 13.482-.584a3.157 3.157 0 00.496-3.309 3.35 3.35 0 00-.496-.844s-2.672-4.364-1.917-7.441a2.26 2.26 0 00-.32-1.766c.117-1.51.727-8.501 2.302-14.436 1.714-6.446 5.324-20.581 2.668-29.873-.1-.366-.214-.723-.341-1.072a40.115 40.115 0 01-1.507-15.674 31.96 31.96 0 010-13.664c1.645-7.502 2.794-14.87 2.794-14.87s.906-9.914.114-15.991c0-.13-.036-.259-.053-.406l.431-.097s-2.327-10.315-3.147-16.879a984.465 984.465 0 00-.723-5.607 14.245 14.245 0 002.229-.556c7.387-2.545 9.714-25.575 9.714-25.575v-7.307s2.485-11.232-6.136-16.189zm-55.05 177.904a8.067 8.067 0 01-.361-.191l.361.191z" fill="url(#paint2_linear)"/><path d="M374.305 267.753c3.204 9.211-.536 24.162-2.274 30.852-1.738 6.69-2.27 14.688-2.27 14.688-6.81 1.067-11.752-.268-11.752-.268l2.806-13.75c-2.006-8.143 0-29.906 0-29.906s-4.54-8.412-4.942-21.227c-.407-12.613-3.505-16.693-3.602-16.819-6.409 3.337-14.555 39.117-14.555 39.117.666 8.676-.138 22.027-2.806 29.229a36.138 36.138 0 00-2.002 14.281c-.934.812-2.233.926-3.655.698-3.813-.617-8.385-3.901-8.385-3.901s1.466-38.971 2.538-40.449c1.072-1.477 0-9.88 0-9.88l1.734-13.616s-.268-23.099 2.27-27.101c2.193-3.459 2.696-9.54 2.794-11.136v-.406l3.866-4.627s37.392-2.806 40.202 0c.687.686 1.113 2.253 1.365 4.221.771 6.057-.114 15.934-.114 15.934s-1.121 7.344-2.725 14.817a32.532 32.532 0 000 13.62 40.757 40.757 0 001.507 15.629z" fill="#65617D"/><path d="M371.966 326.291c-1.669 2.204-11.484 1.271-13.157.585-1.02-.406-.943-2.343-.666-4.32.174-1.254.43-2.537.536-3.471.264-2.403-.813-7.278-.813-7.278s2.201 2.338 2.733 0c.236-1.023 1.056-1.547 1.909-1.811a4.99 4.99 0 013.468.215c1.734.755 4.625 2.359 4.11 4.527-.735 3.065 1.868 7.416 1.868 7.416.201.254.366.536.487.837a3.195 3.195 0 01-.475 3.3z" fill="#A27772"/><path opacity=".1" d="M371.966 326.291c-1.669 2.204-11.484 1.271-13.157.585-1.02-.406-.943-2.343-.666-4.32 1.055.496 2.842.906 5.835.63a16.357 16.357 0 012.1-.065 48.97 48.97 0 006.375-.13 3.198 3.198 0 01-.487 3.3zm-34.254-55.867c.666 8.675-.138 22.027-2.806 29.229a36.133 36.133 0 00-2.002 14.281c-.934.812-2.233.926-3.655.698.812-5.63 4.24-29.89 6.437-49.059 2.505-21.828 14.213-36.844 14.213-36.844l2.335 2.57c-6.376 3.345-14.522 39.125-14.522 39.125z" fill="#000"/><path d="M367.958 130.111l-1.625 8.01-7.987 13.416-9.848-4.205s-13.401-14.018-4.975-16.019a7.462 7.462 0 002.794-1.242c1.653-1.247 2.173-3.057 2.181-4.831a14.821 14.821 0 00-1.356-5.74l17.226-5.408a27.594 27.594 0 00-1.218 6.975c-.134 4.692 1.624 7.002 3.041 8.119.523.42 1.123.734 1.767.925z" fill="#FBBEBE"/><path opacity=".1" d="M364.352 114.092a27.64 27.64 0 00-1.219 6.975 13.622 13.622 0 01-7.384 4.497c-2.398.547-4.9.435-7.239-.324a14.809 14.809 0 00-1.368-5.74l17.21-5.408z" fill="#000"/><path d="M366.329 111.888a13.62 13.62 0 01-16.279 13.363 13.617 13.617 0 01-6.977-3.727 13.614 13.614 0 01-2.956-14.843 13.63 13.63 0 0112.588-8.408 13.567 13.567 0 0112.604 8.394 13.552 13.552 0 011.02 5.221z" fill="#FBBEBE"/><path opacity=".1" d="M367.958 130.111l-1.625 8.01-7.987 13.416-9.848-4.205s-13.401-14.018-4.975-16.019a7.462 7.462 0 002.794-1.242c-1.519 4.173 4.751 12.856 4.751 12.856.731 1.076 2.405.406 2.405.406 4.04-.613 11.476-12.227 12.69-14.159.53.427 1.14.746 1.795.937zm7.711 77.651c-2.371.54-15.492 3.442-20.467 2.715-5.474-.811-16.117-1.331-16.117-1.331s-6.778.365-8.865-.589v-.406l3.866-4.627s37.393-2.806 40.203 0c.702.702 1.129 2.269 1.38 4.238z" fill="#000"/><path d="M351.064 143.329s-7.045-9.743-4.389-13.559l-11.903 4.872s-7.163-.869-9.746 9.82a18.587 18.587 0 00-.443 5.423c.098 1.624-.121 4.466-1.961 8.119-2.936 5.874-2.27 19.36 3.74 20.704 6.01 1.343 8.142.665 8.142.665s-.812 24.431-4.272 27.236c-3.46 2.805 8.853 2.135 8.853 2.135s10.643.536 16.122 1.336c5.478.799 20.832-2.806 20.832-2.806s-2.27-10.278-3.074-16.818c-.804-6.54-2.676-20.472-2.676-20.472l13.62-18.447s2.404-11.147-6.01-16.087c-8.414-4.941-11.578-6.151-11.578-6.151s-8.455 13.762-12.861 14.428c.008 0-1.665.674-2.396-.398z" fill="#FF7B22"/><path opacity=".1" d="M335.438 147.198s-.13 4.408.67 6.142c.8 1.733 3.74 11.366 3.74 11.366h-6.68s3.606-3.872 3.342-5.744c-.264-1.871-1.072-11.764-1.072-11.764z" fill="#000"/><path d="M355.206 180.441s-14.749-3.605-16.121-6.674c-1.373-3.069-5.162-9.942-5.162-9.942l1.556-2.094 7.171 5.626s8.528 6.808 12.556 7.478c4.029.67 0 5.606 0 5.606z" fill="#FBBEBE"/><path opacity=".05" d="M355.206 180.441s-14.749-3.605-16.121-6.674c-1.373-3.069-5.162-9.942-5.162-9.942l1.556-2.094 7.171 5.626s8.528 6.808 12.556 7.478c4.029.67 0 5.606 0 5.606z" fill="#000"/><path d="M367.958 163.087v7.997h-1.283a37.408 37.408 0 00-18.161 4.701l-2.412 1.335-.646.362-4.142-9.337 3.874-3.471h.199c.946.093 5.044.434 6.782-.15 1.649-.56 3.695-2.334 8.552-1.096 2.392.613 4.439 3.292 6.758 2.456l.479-2.797z" fill="#FBBEBE"/><path opacity=".1" d="M380.847 148.521l2.668 3.004v7.279s-2.27 22.96-9.478 25.498c-7.208 2.537-20.085-1.47-20.085-1.47s-3.326-8.809-1.771-9.337c1.556-.528 13.746-3.751 13.746-3.751s-.17-13.469 2.498-17.476c0 0-1.734-12.548 4.276-12.816 6.01-.268 8.146 9.069 8.146 9.069z" fill="#000"/><path d="M381.253 148.521l2.672 3.004v7.279s-2.27 22.96-9.482 25.498c-7.212 2.537-20.085-1.47-20.085-1.47s-3.326-8.809-1.767-9.337c1.56-.528 13.746-3.751 13.746-3.751s-.174-13.469 2.498-17.476c0 0-1.738-12.548 4.272-12.816 6.01-.268 8.146 9.069 8.146 9.069z" fill="#FF7B22"/><path opacity=".1" d="M362.593 117.669a5.366 5.366 0 00-.304-2.602c-.378-.812-1.259-1.425-2.12-1.218-1.141.268-1.624 1.754-2.753 2.111-.946.3-1.978-.37-2.437-1.251-.459-.88-.463-1.916-.463-2.906v-3.345c0-1.218-.04-2.525-.788-3.479-.93-1.186-3.118-1.705-4.58-1.656a3.89 3.89 0 00-2.616 1.051c-.779.666-1.685 1.153-2.749.978a2.367 2.367 0 01-1.916-1.656v-.041a13.626 13.626 0 0115.107-4.76 13.621 13.621 0 019.396 12.747 13.6 13.6 0 01-4.256 10.086c.235-1.343.395-2.698.479-4.059z" fill="#000"/><path d="M343.783 104.959a2.392 2.392 0 01-1.921-1.661c-.109-.43-.081-.889-.207-1.315-.312-1.051-1.433-1.595-2.184-2.395-1.503-1.595-1.405-4.218-.342-6.138.861-1.547 2.526-2.842 4.273-2.55 1.08.187 2.03.954 3.11 1.028 1.08.073 2.031-.524 2.977-.962a11.22 11.22 0 017.399-.658 4.264 4.264 0 012.03 1.027c.388.488.75.996 1.084 1.522 1.243 1.583 3.473 1.896 5.458 2.253 1.986.357 4.232 1.145 4.873 3.053.435 1.267 0 2.639-.235 3.954a1.19 1.19 0 00.053.812c.312.511 1.088.296 1.673.406 1.125.239 1.413 1.689 1.458 2.841.046 1.316.081 2.632.105 3.95a4.99 4.99 0 01-.118 1.462 5.146 5.146 0 01-1.133 1.839l-4.41 5.297c-1.957 2.347-4.032 5.083-3.654 8.119-.926.406-2.031-.385-2.331-1.355-.301-.971-.061-2.03.146-3.009a36.94 36.94 0 00.706-5.216 5.348 5.348 0 00-.304-2.598c-.378-.812-1.259-1.425-2.12-1.218-1.145.268-1.624 1.754-2.753 2.111-.946.3-1.978-.369-2.437-1.25-.459-.881-.463-1.912-.463-2.903v-3.349c0-1.218-.04-2.525-.788-3.479-.93-1.185-3.118-1.705-4.58-1.656a3.886 3.886 0 00-2.611 1.051c-.784.67-1.69 1.161-2.754.987z" fill="#7C5C5C"/><path opacity=".1" d="M346.857 146.865l4.183 17.176s3.298-.021-4.183-17.176zm14.291-2.87s-5.474 8.963-3.338 18.235l1.019.073s-1.819-4.291 2.319-18.308zm3.455 50.731s6.725-2.224 7.213 2.935c.016 0-1.251-3.535-7.213-2.935zm-19.415-29.638s-1.336 9.337 1.068 13.084c0 0-4.873 2.001-11.752 1.603l-.812-14.687h11.496z" fill="#000"/><path opacity=".1" d="M346.102 177.12l-.646.362-4.142-9.337 3.874-3.471h.199c-.061.463-1.141 8.488.715 12.446z" fill="#000"/><path d="M345.188 164.69s-1.336 9.337 1.068 13.08c0 0-4.873 2.005-11.752 1.603l-4.674-14.683h15.358z" fill="#FF7B22"/><path d="M333.639 320.608a3.024 3.024 0 01-2.595 2.647c-3.626.539-12.361 1.92-14.566 2.971-2.806 1.336-13.888.406-14.424-.934a2.1 2.1 0 01.19-1.623 4.284 4.284 0 011.791-1.925c.259-.144.531-.263.812-.357 2.088-.694 6.031-2.172 7.095-3.722 0 0 4.918-4.299 6.319-6.621a3.2 3.2 0 012.566-1.6c1.17-.053 2.473.536 3.009 3.097 0 0 6.404 3.654 8.122.451 0 0 .268 4.92 1.332 6.268a1.797 1.797 0 01.349 1.348z" fill="#A27772"/><path opacity=".1" d="M333.639 320.608a3.03 3.03 0 01-2.595 2.647c-3.626.54-12.361 1.92-14.566 2.971-2.806 1.336-13.888.406-14.424-.934a2.1 2.1 0 01.19-1.623 4.284 4.284 0 011.791-1.925c1.807 1.218 5.819 2.371 14.644.995 8.418-1.315 12.589-2.602 14.619-3.479a1.784 1.784 0 01.341 1.348zm36.439-218.304v-.065c.19-.999.479-2.03.406-3.033-.085.82-.221 1.633-.406 2.436a1.48 1.48 0 000 .662zm-7.793 12.495c.212.481.324 1 .329 1.526a4.605 4.605 0 00-.329-2.127c-.374-.812-1.255-1.425-2.116-1.218-1.145.268-1.624 1.754-2.757 2.111-.943.301-1.974-.369-2.437-1.25-.463-.881-.463-1.916-.463-2.907v-3.345c0-1.218-.04-2.525-.788-3.479-.934-1.189-3.118-1.705-4.58-1.66a3.893 3.893 0 00-2.616 1.055c-.783.666-1.685 1.153-2.753.979a2.383 2.383 0 01-1.917-1.657c-.109-.43-.081-.893-.207-1.319-.312-1.047-1.433-1.595-2.184-2.391a4.366 4.366 0 01-1.125-2.842 4.545 4.545 0 001.125 3.422c.751.812 1.872 1.344 2.184 2.391.126.406.098.89.207 1.32a2.382 2.382 0 001.917 1.656c1.068.175 1.97-.312 2.753-.978a3.894 3.894 0 012.616-1.056c1.462-.044 3.654.471 4.58 1.661.748.954.784 2.265.788 3.479v3.345c0 .99 0 2.029.463 2.902.463.873 1.482 1.555 2.437 1.255 1.12-.358 1.624-1.843 2.757-2.111.861-.187 1.742.454 2.116 1.238zm10.976-3.674a5.123 5.123 0 01-1.137 1.835l-4.41 5.298c-1.856 2.228-3.817 4.81-3.655 7.656.134-2.61 1.954-4.985 3.655-7.056l4.41-5.297a5.123 5.123 0 001.137-1.835c.111-.48.15-.974.118-1.466a3.826 3.826 0 01-.118.865zm-11.5 13.896a3.166 3.166 0 01-.134-.715c-.037.443.008.889.134 1.315.3.967 1.401 1.766 2.331 1.352a5.453 5.453 0 01-.049-.584c-.926.369-1.998-.418-2.282-1.368zm-44.39 187.244s1.397 2.436 6.457.293l-6.457-.293zm42.766.593s4.361 5.135 9.859 1.685l-9.859-1.685zm12.694-60.726s-3.082 1.924-3.18 3.024c-.097 1.101 1.592-.811 1.592-.811l1.588-2.213zm1.218 14.76a6.441 6.441 0 01-3.797 1.482c-2.306.102-2.111 3.106-.605 2.204 1.507-.901 4.402-3.686 4.402-3.686zm.585 1.929s-1.478 7.262-2.68 5.862l2.68-5.862z" fill="#000"/><path d="M89.064 323.251s9.279 2.545 13.746-.841c4.467-3.385 6.404-2.297 6.404-2.297s10.651-.589 11.529-3.106c.877-2.517-4.086-11.659-4.086-11.659-.353-.812-.869-1.843-1.1-1.843l.049-3.856 1.543-16.137c3.561-9.13.065-20.927.065-20.927l-.638-2.927a7.403 7.403 0 01.605-4.871l6.469-12.99c.346-.859.754-1.692 1.218-2.493.407-.743.947-1.66 1.625-2.76a95.32 95.32 0 013.517-5.18c2.863-3.967 4.369-8.931 5.149-12.585l.345 1.145h.077l.094.02h.154l.166.029h.061l1.99 25.315c.122 9.872 3.748 15.336 3.748 15.336l-.499 21.796c.682 5.249-.812 12.248-1.499 15.04l-1.567 3.536a4.257 4.257 0 00-2.311 3.215c-.308 2.611-3.058 8.237-3.058 8.237-1.064 1.348-3.374 4.989-3.374 4.989s-1.089 3.516-.414 4.831c.674 1.315 6.31 1.181 6.31 1.181 6.437 1.425 11.371-2.029 11.058-4.408-.313-2.379 1.003-2.984 1.003-2.984 2.558-.812 2.311-2.545 2.311-2.545a15.934 15.934 0 00-1.937-10.368l-.406.938c-.11-1.878.152-3.758.771-5.534l-.235.163-.074.044h-.024c.406-3.56 4.146-10.148 4.146-10.148 6.871-12.049 4.374-28.376 4.374-28.376l-1.064-5.091-.061-1.92a64.03 64.03 0 011.036-13.681 98.004 98.004 0 001.043-7.067c.617-5.619 2.607-11.416 3.525-13.872l.272-.048h.033c.373-.065.751-.13 1.133-.203h.073s.219-1.186.406-3.203a57.12 57.12 0 00.199-4.794 53.916 53.916 0 00-2.563-16.689l.207-.296s.492-.666 1.389-1.819a208.491 208.491 0 017.379-8.866c5.665-6.459 4-12.99 4-12.99s-4.102-15.025-5.929-24.045c-1.044-5.139-3.001-8.635-4.499-10.697.337-1.422.528-2.874.568-4.335.122-2.671.028-5.456-1.174-7.855-1.202-2.4-3.76-4.295-6.432-3.975a2.443 2.443 0 01-1.153 0 1.747 1.747 0 01-.76-.661c-1.563-2.156-1.665-5.055-1.177-7.669.487-2.614 1.486-5.115 1.933-7.737.446-2.623.243-5.533-1.426-7.612-1.961-2.435-5.38-3.122-7.931-4.952-1.791-1.287-3.135-3.134-5.023-4.275-1.888-1.14-3.655-.707-5.706-.276-3.447.727-6.724 1.06-9.985 2.541a26.595 26.595 0 00-8.703 6.329 8.25 8.25 0 00-1.941 3.06c-.812 2.684.776 5.542.443 8.319-.236 1.969-1.397 3.682-2.319 5.439-.922 1.758-1.624 3.845-.902 5.684 1.137 2.874 4.845 3.483 7.541 5.013.361.176.669.444.894.776.666 1.161-.695 2.366-1.551 3.397a5.119 5.119 0 00-1.016 2.063 7.358 7.358 0 00-4.414 5.326c-.913 4.088.492 9.247 1.73 12.657-1.352 7.596.406 10.592 1.702 11.74a6.52 6.52 0 012.258 4.441v.143c.085 1.38.231 2.756.426 4.128-.045-.321-.089-.662-.114-.812-1.06 1.961-3.078 6.97-4.215 15.398a46.474 46.474 0 01-1.027 5.362 29.285 29.285 0 00-.861 9.589l.203 2.732a.86.86 0 01-.553-.183l1.426 2.611v4.404a16.25 16.25 0 01-1.08 5.809c-.102.268-.212.536-.329.812a4.71 4.71 0 00-.479 2.391c-3.066 4.697-10.096 31.019-10.096 31.019-3.813 8.631.313 14.208.313 14.208s1.998 24.029 2.371 25.271c.374 1.242 1.202 15.889 1.202 15.889v1.165a2.703 2.703 0 00-.694-.199c-3.342-.187-4.248 5.09-4.248 5.09l-6.838 6.528s-3.123-.528-7.716 2.919c-4.593 3.446 2.969 6.589 2.969 6.589zm68.284-138.872l-.021-.073-.187.109-.077.045-.036.024-3.152-11.119a18.459 18.459 0 01-.231-9.146l2.437-10.668v-2.566l7.744 20.631c.495 2.78-4.106 9.515-6.477 12.763z" fill="url(#paint3_linear)"/><path d="M160.746 217.939s-3.126 7.603-3.922 14.898a96.128 96.128 0 01-1.028 6.983 63.818 63.818 0 00-.999 13.506l.061 1.895 1.015 5.022s2.437 16.128-4.292 28.011c0 0-3.988 7.116-4.11 10.485l-2.7 1.044-5.458-1.531s2.636-9.446 1.779-16.067l.491-21.516s-3.545-5.383-3.667-15.126l-2.083-26.735 24.913-.869zm-24.913-3.808s-.67 10.425-5.827 17.61c-5.158 7.185-6.254 10.303-6.254 10.303l-6.351 12.836a7.347 7.347 0 00-.597 4.803l.625 2.89s3.435 11.651-.061 20.667l-1.657 17.415h-9.689s-.812-14.472-1.166-15.698c-.353-1.226-2.331-24.958-2.331-24.958s-4.06-5.521-.308-14.042c0 0 8.467-31.887 10.733-31.335 2.266.552 22.883-.491 22.883-.491z" fill="#FDC2CC"/><path opacity=".1" d="M116.446 262.593l-.621-2.89a7.304 7.304 0 01.593-4.823l6.351-12.848s1.1-3.126 6.254-10.303c4.95-6.901 5.766-16.79 5.823-17.549l.987-.049s-.67 10.425-5.828 17.61c-5.157 7.185-6.253 10.303-6.253 10.303L117.4 254.88a7.353 7.353 0 00-.596 4.803l.625 2.89s3.435 11.651-.061 20.667l-1.657 17.415h-.983l1.657-17.415c3.497-9.016.061-20.647.061-20.647zm30.059 36.158c.122-3.369 4.11-10.485 4.11-10.485 6.749-11.895 4.292-28.011 4.292-28.011l-1.04-5.026-.061-1.895a63.818 63.818 0 01.999-13.506 98.583 98.583 0 001.024-6.983c.767-7.023 3.695-14.33 3.91-14.866l1.007-.04s-3.126 7.603-3.922 14.898a96.128 96.128 0 01-1.028 6.983 63.818 63.818 0 00-.999 13.506l.061 1.895 1.015 5.022s2.437 16.128-4.292 28.011c0 0-3.988 7.116-4.11 10.485l-2.7 1.044-.569-.159 2.303-.873z" fill="#000"/><path d="M143.378 298.63a4.706 4.706 0 004.467-.552 14.394 14.394 0 00-.365 8.094c1.104 4.417-10.307-3.556-10.307-3.556l2.437-5.566s.946 1.762 3.768 1.58z" fill="#D39999"/><path opacity=".1" d="M144.227 298.877a4.552 4.552 0 003.626-.812 14.406 14.406 0 00-.365 8.095c1.104 4.417-10.307-3.556-10.307-3.556l2.437-5.566s.706 1.356 2.781 1.567c.63.073 1.231.159 1.828.272z" fill="#000"/><path d="M117.49 195.465h4.767v-27.04l-3.577-.641-1.19 27.681z" fill="#FDC2CC"/><path opacity=".05" d="M117.49 195.465h4.767v-27.04l-3.577-.641-1.19 27.681z" fill="#000"/><path d="M140.678 300.716s3.005-.187 4.353 2.513l1.657 1.287.812-1.9a15.823 15.823 0 011.876 10.242s.244 1.713-2.27 2.513c0 0-1.287.613-.983 2.943.305 2.33-4.536 5.765-10.855 4.352 0 0-5.522.126-6.196-1.165-.675-1.291.43-4.721.43-4.721s2.27-3.597 3.31-4.925c0 0 2.7-5.561 3.009-8.119.308-2.557 3.261-4.433 4.857-3.02z" fill="#7E5659"/><path d="M115.805 302.985l.048-3.811s-5.486 1.579-9.929-.207c0 0 .374 3.832-.243 4.355-.618.524 2.055 5.456 2.055 5.456l2.984 3.126 5.133-1.867 1.393-4.384s-1.076-2.668-1.441-2.668z" fill="#D39999"/><path opacity=".1" d="M115.805 302.985l.048-3.811s-5.486 1.579-9.929-.207c0 0 .374 3.832-.243 4.355-.618.524 2.055 5.456 2.055 5.456l2.984 3.126 5.133-1.867 1.393-4.384s-1.076-2.668-1.441-2.668z" fill="#000"/><path d="M105.344 301.605s2.915.337 2.546 4.06c-.37 3.722.154 0 .154 0s3.099 1.254 4.203 3.004c1.105 1.749 3.099-1.563 3.249-2.513.15-.95 1.393-1.344 1.393-1.344s4.873 9.033 4.012 11.517c-.861 2.485-11.322 3.057-11.322 3.057s-1.904-1.072-6.29 2.269-13.495.812-13.495.812-7.423-3.097-2.911-6.495c4.511-3.398 7.573-2.882 7.573-2.882l6.717-6.471s.889-5.2 4.171-5.014z" fill="#7E5659"/><path d="M140.166 88.071c1.856 1.124 3.175 2.951 4.934 4.222 2.501 1.806 5.86 2.48 7.785 4.892 1.624 2.054 1.835 4.924 1.397 7.514-.439 2.59-1.422 5.062-1.897 7.644-.475 2.582-.378 5.444 1.157 7.571.179.286.437.513.744.653.372.089.76.089 1.133 0 2.623-.316 5.141 1.559 6.318 3.926 1.178 2.367 1.271 5.119 1.15 7.758-.102 2.163-.346 4.372-1.296 6.32-1.624 3.313-5.003 5.359-8.337 6.926a64.5 64.5 0 01-6.656 2.687c-1.559.528-3.204 1.003-4.824.727-2.774-.479-4.739-3-7.371-3.987-2.156-.811-4.548-.519-6.842-.316-1.957.17-4.195.166-5.543-1.263-1.73-1.835-.951-4.794-.065-7.157a5.084 5.084 0 01-2.609-.917 5.089 5.089 0 01-2.115-4.884 5.089 5.089 0 011.118-2.529c.836-1.019 2.172-2.208 1.518-3.357a2.215 2.215 0 00-.877-.763c-2.643-1.51-6.286-2.115-7.399-4.949-.714-1.822-.024-3.885.882-5.618.905-1.733 2.03-3.43 2.278-5.371.325-2.744-1.219-5.565-.435-8.212a8.234 8.234 0 011.905-3.028 26.13 26.13 0 018.528-6.248c3.204-1.466 6.416-1.794 9.803-2.509 2.03-.43 3.711-.885 5.616.268z" fill="#865A61"/><path d="M122.253 128.938s-7.768-.406-9.238 6.215c-1.47 6.621 3.188 16.104 3.188 16.104l6.05-22.319z" fill="#FDC2CC"/><path opacity=".05" d="M122.253 128.938s-7.768-.406-9.238 6.215c-1.47 6.621 3.188 16.104 3.188 16.104l6.05-22.319z" fill="#000"/><path d="M117.295 148.643l2.944 2.33 13.738.613 8.577-5.886 8.722-14.964c-5.331-1.359-7.488-5.041-8.292-8.484a18.579 18.579 0 01-.17-7.088s-13.986-7.238-12.268 4.06a15.37 15.37 0 01.13 4.197c-.813 6.617-7.237 5.371-7.237 5.371l-2.465 3.8-2.822 9.337-.857 6.714z" fill="#FDC2CC"/><path opacity=".1" d="M130.558 119.207c.235 1.387.279 2.799.13 4.198a12.405 12.405 0 0012.308-1.153 18.579 18.579 0 01-.17-7.088s-13.986-7.238-12.268 4.043z" fill="#000"/><path d="M135.841 124.034c6.843 0 12.39-5.545 12.39-12.385 0-6.841-5.547-12.386-12.39-12.386-6.843 0-12.39 5.545-12.39 12.386 0 6.84 5.547 12.385 12.39 12.385z" fill="#FDC2CC"/><path d="M127.078 146.28c.3 0 .597.045.893.073 1.624.163 8.41.528 12.276-4.088 4.325-5.163 10.083-11.541 10.319-11.801l5.86 1.77s-4.638-1.648-7.716 6.975a8.93 8.93 0 003.017 10.274 9.278 9.278 0 003.834 1.624c.002.003.002.007.002.01 0 .004 0 .007-.002.01v3.784l-2.396 10.555a18.285 18.285 0 00.227 9.032l3.655 12.913c-.552.382-23.228 15.8-38.375 5.152.056-.463 1.928-15.617.629-23.034a51.085 51.085 0 01-.678-5.732v-.142a6.461 6.461 0 00-2.221-4.384c-1.365-1.218-3.213-4.466-1.385-13.047a31.478 31.478 0 012.03-6.183l5.08-11.476 4.683.093v.032c-.407.504-5.836 7.283-6.425 11.651-.576 4.153-1.287 5.428 6.693 5.939z" fill="#FF7B22"/><path d="M160.369 134.252s4.581 3.926 6.38 12.836c1.798 8.911 5.807 23.712 5.807 23.712s1.624 6.458-3.927 12.836c-5.552 6.377-9.243 11.367-9.243 11.367l-3.655 5.382a4.583 4.583 0 01-2.631 1.86c-1.665.438-4.224.755-6.441-.459a3.754 3.754 0 01-1.624-4.737l.812-1.88s-7.525 4.741-8.179 2.123c-.653-2.618 8.752-5.233 8.752-5.233s7.768-1.307 9.34-4.985c0 0 8.341-10.713 7.687-14.391l-8.057-21.584s-10.075-1.332-6.639-12.645c3.435-11.314 11.618-4.202 11.618-4.202z" fill="#FDC2CC"/><path d="M112.194 215.686s18.404 3.678 22.741 3.186l.467 1.555s6.985 1.563 22.778-.942c1.031-.162 2.102-.345 3.212-.548l.37-.065s.215-1.169.386-3.162c.377-4.526.511-13.291-2.677-22.262l-2.655-8.176s-16.415 9.836-27.282 8.931a57.711 57.711 0 00-2.903-.191c-2.23-.085-5.685 0-7.931-1.798l-4.711.812v13.396a16.028 16.028 0 01-1.064 5.732c-.101.268-.207.532-.324.812a4.256 4.256 0 00-.407 2.72z" fill="#65617D"/><path opacity=".1" d="M135.398 216.258v4.169s8.041 1.799 26.36-1.555c0 0 .215-1.169.385-3.162-5.62.901-21.12 3.069-26.745.548z" fill="#000"/><path opacity=".1" d="M112.194 215.686s18.404 3.678 22.741 3.186l.467 1.555v-4.169c-2.095.869-17.055-2.736-22.477-4.088-.101.268-.207.532-.324.812a4.261 4.261 0 00-.407 2.704z" fill="#000"/><path d="M156.811 211.038l1.365 8.46c1.031-.163 2.102-.345 3.212-.548-.426-2.473-1.356-8.119-1.1-9.057l-1.718-1.47-1.759 2.615z" fill="#65617D"/><path opacity=".1" d="M157.002 210.855l1.365 8.464a166.76 166.76 0 003.212-.548c-.426-2.472-1.356-8.119-1.101-9.057l-1.717-1.473-1.759 2.614z" fill="#000"/><path opacity=".05" d="M128.548 194.199a57.442 57.442 0 00-2.904-.191c-2.168-.081-5.478 0-7.736-1.66l.788-.138c2.258 1.79 5.685 1.713 7.931 1.798.97.032 1.933.11 2.903.191.317.028.642.044.971.053a18.438 18.438 0 01-1.953-.053zm28.645 25.286a139.08 139.08 0 003.212-.544l.374-.069s.215-1.169.382-3.162c.381-4.526.515-13.291-2.676-22.262l-2.502-7.713c.532-.301.812-.475.812-.475l2.656 8.176c3.188 8.971 3.054 17.736 2.676 22.262-.17 1.993-.386 3.162-.386 3.162l-.369.069c-1.107.201-2.178.382-3.212.544-7.379 1.169-12.829 1.454-16.548 1.421 5.221-.079 10.43-.55 15.581-1.409zm-23.248-.613v.045h-.528c.2-.013.376-.028.528-.045z" fill="#000"/><path d="M159.098 212.617c.383 0 .694-.64.694-1.429s-.311-1.429-.694-1.429c-.384 0-.695.64-.695 1.429s.311 1.429.695 1.429z" fill="#D39999"/><path d="M114.777 182.252c1.121-8.322 3.099-13.267 4.142-15.203.041.264.146 1.12.195 1.384.211 1.218.025 2.752.09 4.299l-1.04 18.82 1.393 5.886c1.307 4.661-3.537.979-3.537.979-1.003 2.208-2.843 1.964-2.843 1.964l-.252-3.377a29.172 29.172 0 01.845-9.471c.44-1.739.777-3.502 1.007-5.281z" fill="#FDC2CC"/><path opacity=".05" d="M114.777 182.252c1.121-8.322 3.099-13.267 4.142-15.203.041.264.146 1.12.195 1.384.211 1.218.025 2.752.09 4.299l-1.04 18.82 1.393 5.886c1.307 4.661-3.537.979-3.537.979-1.003 2.208-2.843 1.964-2.843 1.964l-.252-3.377a29.172 29.172 0 01.845-9.471c.44-1.739.777-3.502 1.007-5.281z" fill="#000"/><path d="M161.388 192.404c-.881 1.141-1.364 1.795-1.364 1.795l-3.655 5.379a4.564 4.564 0 01-2.632 1.859c-1.665.438-4.223.759-6.44-.459a3.738 3.738 0 01-1.625-4.733l.813-1.884s-7.525 4.742-8.179 2.127c-.654-2.614 8.751-5.232 8.751-5.232s7.769-1.308 9.34-4.99c0 0 .678-.868 1.625-2.2" fill="#FDC2CC"/><path d="M156.811 201.421s-8.897-.865-11.715-5.952l-1.292 4.202s9.34 6.446 11.472 5.61l1.535-3.86z" fill="#65617D"/><path opacity=".1" d="M156.495 201.38s-8.894-.865-11.716-5.955l-1.287 4.189s9.34 6.447 11.468 5.61l1.535-3.844z" fill="#000"/><path d="M116.312 199.046s-3.115 1.104-3.728.491l1.401 2.578 2.648-2.03-.321-1.039z" fill="#65617D"/><path opacity=".1" d="M116.312 199.046s-3.115 1.104-3.728.491l1.401 2.578 2.648-2.03-.321-1.039zm19.086 17.212v-5.379l-1.279 5.509 1.279-.13zm12.618-111.149c-.752 1.055-2.055 1.591-3.338 1.758-1.284.166-2.583.024-3.879 0-2.03-.033-4.19.28-5.851 1.473-1.06.759-1.856 1.827-2.685 2.842-2.509 3.065-5.994 5.935-9.949 5.614a2.583 2.583 0 01-1.848-.779 2.97 2.97 0 01-.471-1.681 38.443 38.443 0 01.24-7.575 15.966 15.966 0 011.145-4.518 15.415 15.415 0 012.753-3.93 16.854 16.854 0 014.804-3.848 8.622 8.622 0 016.011-.776c2.367.646 4.211 2.497 6.469 3.451 2.578 1.084 9.425 3.978 6.599 7.969z" fill="#000"/><path d="M148.016 104.618c-.752 1.055-2.055 1.591-3.338 1.757-1.284.167-2.583.025-3.879 0-2.03-.036-4.19.276-5.851 1.47-1.06.759-1.856 1.827-2.685 2.842-2.509 3.064-5.994 5.935-9.949 5.614a2.56 2.56 0 01-1.848-.78 2.956 2.956 0 01-.471-1.68 38.443 38.443 0 01.24-7.575 15.973 15.973 0 011.145-4.519 15.336 15.336 0 012.753-3.925 16.787 16.787 0 014.804-3.853 8.622 8.622 0 016.011-.775c2.367.646 4.211 2.497 6.469 3.45 2.578 1.089 9.425 3.975 6.599 7.974z" fill="#865A61"/><path d="M118.7 192.206l-.033 1.481-.332-1.417.365-.064z" fill="#FDC2CC"/><path opacity=".05" d="M118.7 192.206l-.033 1.481-.332-1.417.365-.064zm31.318-54.528c-3.44 11.314 6.586 12.641 6.586 12.641l8.057 21.585c.654 3.678-7.691 14.391-7.691 14.391-.581 1.372-2.031 2.415-3.614 3.187a5.668 5.668 0 002.144-2.355s8.341-10.709 7.687-14.387l-8.057-21.588s-10.022-1.328-6.587-12.642c1.15-3.779 2.843-5.5 4.557-6.117-1.182.95-2.266 2.594-3.082 5.285z" fill="#000"/><g opacity=".1" fill="#000"><path opacity=".1" d="M150.188 147.957a8.433 8.433 0 001.625 1.538 9.21 9.21 0 003.833 1.624v.427a9.217 9.217 0 01-3.476-1.539 8.428 8.428 0 01-1.982-2.05zm-31.155 16.185v.142c.127 1.929.36 3.849.698 5.753 1.219 6.998-.377 20.894-.605 22.814-.13-.085-.26-.166-.406-.26.061-.463 1.933-15.617.634-23.029a51.375 51.375 0 01-.678-5.732v-.143a6.26 6.26 0 00-1.093-3.105 6.308 6.308 0 011.45 3.56zm7.476-35.025l-3.971-.077a.023.023 0 00-.011-.003.02.02 0 00-.01.003l-5.076 11.472a31.556 31.556 0 00-2.03 6.182c-1.479 6.942-.549 10.401.58 12.11-1.271-1.498-2.582-4.912-.946-12.585a31.29 31.29 0 012.01-6.186l5.113-11.472 4.682.093v.028c-.036.049-.162.203-.341.435zm29.929 3.113l.069.021-.069-.021z"/><path opacity=".1" d="M154.98 132.165l-3.98-1.197h-.02c-.235.26-5.99 6.637-10.315 11.801-3.866 4.616-10.643 4.254-12.276 4.092a20.678 20.678 0 00-.893-.077c-4.439-.284-6.185-.812-6.77-1.933.833.812 2.664 1.218 6.4 1.446.301 0 .597.044.894.073 1.624.162 8.41.523 12.276-4.088 4.325-5.168 10.083-11.546 10.319-11.805l5.79 1.753a3.62 3.62 0 00-1.425-.065z"/></g><path opacity=".1" d="M107.861 307.504s-5.604 1.53-6.688-.873l6.688.873zm35.578-1.149s-6.497 1.676-8-.918l8 .918z" fill="#000"/><path d="M237.132 302.722c.093-.812.227-1.624.374-2.436.641-3.508-.337-6.853-.813-8.233a8.707 8.707 0 00-.26-.666c-2.586-.706-12.783 7.202-16.499 10.182-1.287 0-2.684.056-4.211.158-.666.049-1.332.065-1.998.053h-2.437c-3.447-2.777-14.119-11.127-16.775-10.405 0 0-.11.24-.26.666-.496 1.38-1.474 4.725-.833 8.233.147.812.281 1.623.374 2.435.199 1.782.946 5.205 3.655 7.515.581 4.221 2.753 9.771 4.426 13.14.125.636.316 1.258.569 1.855-.691 2.663-1.487 6.138-1.259 7.307 0 0-3.606-.872-3.972 3.467v.134c-1.303.597-2.932 1.965-1.1 4.831.22.353.552.623.942.767.325.114.642.114.609-.341l2.254 2.538s4.085.47 4.134-1.9l.239.036c.549.081 1.121.15 1.71.211l.284.938s-3.066-.065-2.229 1.823c0 0 .772.714 1.035.454 0 0-.406 1.239 1.194 1.239 0 0 1.718.909 2.388.259.67-.649 2.059-1.623 2.189-2.029.037-.11.053-1.072.061-2.404h.264c3.423.082 7.058-.028 10.363-.207h.268c0 1.441.021 2.505.057 2.619.134.406 1.527 1.368 2.193 2.029.666.662 2.384-.259 2.384-.259 1.592 0 1.194-1.238 1.194-1.238.268.259 1.039-.455 1.039-.455.837-1.888-2.233-1.823-2.233-1.823l.365-1.218 1.694-.142.268-.024c-.163 2.578 4.13 2.082 4.13 2.082l2.257-2.537c-.036.455.281.455.606.341.381-.151.702-.423.913-.775 2.766-4.324-2.343-5.241-2.343-5.241a2.545 2.545 0 00-.483-.077c0-.073 0-.15.02-.223a8.925 8.925 0 00.033-1.714c-.191-.783-1.45-2.029-3.042-2.212-1.04-.13-1.06-4.904-.954-8.212a9.447 9.447 0 00.162-1.884 9.896 9.896 0 00-.406-3.016c2.031-3.443 3.655-7.052 3.838-8.119 2.676-2.33 3.423-5.74 3.622-7.522z" fill="url(#paint4_linear)"/><path d="M233.201 335.624c-.162 2.249-.597 5.858-.597 5.858s-1.807.219-4.601.471l-1.896.162c-1.454.118-3.087.231-4.813.329-3.187.174-6.688.284-9.989.203a63.266 63.266 0 01-4.731-.268 39.665 39.665 0 01-1.913-.232c-3.785-.564-6.497-1.644-6.729-3.539a10.972 10.972 0 01-.085-2.436c.353-4.263 3.825-3.402 3.825-3.402-.223-1.177.617-4.835 1.3-7.482.43-1.668.812-2.935.812-2.935l24.414-1.623h.081a1.18 1.18 0 01.867.37 1.213 1.213 0 01.327.884c-.146 2.927-.353 9.629.845 9.779 1.535.191 2.749 1.405 2.936 2.172a9.081 9.081 0 01-.053 1.689zm-20.735-32.127s-9.206 11.078-13.641 8.009a5.956 5.956 0 01-.304-.223c-2.981-2.257-3.765-5.894-3.972-7.741a34.985 34.985 0 00-.361-2.387c-.613-3.447.325-6.727.812-8.083.146-.406.248-.654.248-.654 3.066-.852 17.218 11.079 17.218 11.079z" fill="#FF7B22"/><path d="M207.52 304.52s-2.9 2.03-6.989 5.367c-.637.521-1.316.988-2.03 1.396-2.981-2.257-3.765-5.894-3.972-7.741a34.985 34.985 0 00-.361-2.387c-.614-3.447.325-6.727.812-8.083 5.734.398 12.54 11.448 12.54 11.448z" fill="#FF7B22"/><path opacity=".5" d="M207.52 304.52s-2.9 2.03-6.989 5.367c-.637.521-1.316.988-2.03 1.396-2.981-2.257-3.765-5.894-3.972-7.741a34.985 34.985 0 00-.361-2.387c-.614-3.447.325-6.727.812-8.083 5.734.398 12.54 11.448 12.54 11.448z" fill="#fff"/><path opacity=".1" d="M204.365 303.428s-1.548 1.092-3.732 2.866a7.97 7.97 0 01-1.072.743c-1.588-1.218-2.031-3.146-2.12-4.129a17.27 17.27 0 00-.191-1.278 8.862 8.862 0 01.451-4.312c3.033.212 6.664 6.11 6.664 6.11z" fill="#000"/><path d="M218.432 303.497s9.206 11.078 13.64 8.009c.102-.073.207-.146.305-.223 2.98-2.257 3.764-5.894 3.971-7.741.09-.812.219-1.596.358-2.387.617-3.447-.325-6.727-.813-8.083-.146-.406-.251-.654-.251-.654-3.058-.852-17.21 11.079-17.21 11.079z" fill="#FF7B22"/><path d="M223.374 304.52s2.903 2.03 6.993 5.367c.63.52 1.302.987 2.01 1.396 2.98-2.257 3.764-5.894 3.971-7.741.09-.812.219-1.596.358-2.387.617-3.447-.325-6.727-.813-8.083-5.705.398-12.519 11.448-12.519 11.448z" fill="#FF7B22"/><path opacity=".5" d="M223.374 304.52s2.903 2.03 6.993 5.367c.63.52 1.302.987 2.01 1.396 2.98-2.257 3.764-5.894 3.971-7.741.09-.812.219-1.596.358-2.387.617-3.447-.325-6.727-.813-8.083-5.705.398-12.519 11.448-12.519 11.448z" fill="#fff"/><path opacity=".1" d="M226.553 303.42s1.539 1.088 3.708 2.842a7.46 7.46 0 001.068.738c1.58-1.197 1.998-3.125 2.108-4.104.044-.406.113-.848.19-1.27a8.876 8.876 0 00-.426-4.287c-3.038.219-6.648 6.081-6.648 6.081zm1.629 17.318c-1.162 1.835-2.396 3.491-3.525 4.49-3.655 3.247-19.436 1.956-20.459 1.79-.215-.037-.662-.674-1.218-1.709.43-1.669.812-2.935.812-2.935l24.39-1.636z" fill="#000"/><path d="M215.69 302.567c-.641.045-1.283.061-1.929.049-3.293-.057-14.387.089-15.618 4.567-1.449 5.277 5.032 19.409 6.051 19.579 1.019.171 16.796 1.449 20.463-1.79 3.667-3.24 8.438-13.397 8.183-14.318 0 0 4.548-9.589-17.15-8.087z" fill="#FF7B22"/><path opacity=".1" d="M215.341 311.125s-8.122-1.251-11.931 6.739a9.745 9.745 0 00.719 9.82c1.267 1.782 3.127 3.109 5.714 2.029 5.75-2.366 5.498-18.588 5.498-18.588z" fill="#000"/><path opacity=".1" d="M215.085 310.613s-8.121-1.25-11.931 6.739a9.738 9.738 0 00.719 9.82c1.267 1.782 3.127 3.11 5.714 2.03 5.75-2.367 5.498-18.589 5.498-18.589z" fill="#000"/><path d="M215.085 310.869s-8.121-1.25-11.931 6.739a9.744 9.744 0 00.719 9.82c1.267 1.782 3.127 3.109 5.714 2.029 5.75-2.366 5.498-18.588 5.498-18.588z" fill="#FF7B22"/><path opacity=".5" d="M215.085 310.869s-8.121-1.25-11.931 6.739a9.744 9.744 0 00.719 9.82c1.267 1.782 3.127 3.109 5.714 2.029 5.75-2.366 5.498-18.588 5.498-18.588z" fill="#fff"/><path d="M206.326 317.855s-1.109 1.023-.682 1.279c.426.256.682-1.279.682-1.279zm1.194 1.308s-.605 1.335-.175 1.481c.431.146.687-.958.687-.958l-.512-.523zm-2.676 2.017s-.593 1.575 0 1.575 0-1.575 0-1.575z" fill="#3F2B3B"/><path d="M204.109 325.398s1.186 3.028 4.272 2.813m-1.499-1.92s1.219 1.194 2.555.341" stroke="#3F2B3B" stroke-miterlimit="10"/><path opacity=".1" d="M216.381 311.125s8.122-1.251 11.931 6.739a9.745 9.745 0 01-.719 9.82c-1.263 1.782-3.127 3.109-5.714 2.029-5.766-2.366-5.498-18.588-5.498-18.588z" fill="#000"/><path opacity=".1" d="M216.62 310.613s8.122-1.25 11.931 6.739a9.739 9.739 0 01-.718 9.82c-1.263 1.782-3.127 3.11-5.714 2.03-5.738-2.367-5.499-18.589-5.499-18.589z" fill="#000"/><path d="M216.62 310.869s8.122-1.25 11.931 6.739a9.735 9.735 0 01-.718 9.82c-1.263 1.782-3.127 3.109-5.714 2.029-5.738-2.366-5.499-18.588-5.499-18.588z" fill="#FF7B22"/><path opacity=".5" d="M216.62 310.869s8.122-1.25 11.931 6.739a9.735 9.735 0 01-.718 9.82c-1.263 1.782-3.127 3.109-5.714 2.029-5.738-2.366-5.499-18.588-5.499-18.588z" fill="#fff"/><path d="M225.38 317.855s1.108 1.023.682 1.279c-.426.256-.682-1.279-.682-1.279zm-1.194 1.308s.605 1.335.174 1.481c-.43.146-.686-.958-.686-.958l.512-.523zm2.68 2.017s.589 1.575 0 1.575 0-1.575 0-1.575z" fill="#3F2B3B"/><path d="M227.597 325.398s-1.186 3.028-4.272 2.813m1.502-1.92s-1.218 1.194-2.558.341" stroke="#3F2B3B" stroke-miterlimit="10"/><path d="M211.995 334.004c.215-.04 4.264-1.79 8.439 0h-8.439z" fill="#3F2B3B"/><path opacity=".1" d="M204.661 342.16c-3.785-.565-6.497-1.644-6.729-3.54a10.968 10.968 0 01-.085-2.436 5.472 5.472 0 011.445-.528c.687-.19 1.536-.06 3.326.451 1.791.511 1.661 2.618 2.031 5.367.039.226.043.458.012.686z" fill="#000"/><path d="M199.037 335.92s-4.922.902-2.258 5.148c.211.344.531.609.909.751.313.109.614.109.581-.337l2.177 2.492s4.345.512 3.963-2.236c-.381-2.749-.256-4.872-2.03-5.367-1.775-.495-2.648-.642-3.342-.451z" fill="#FF7B22"/><path d="M200.21 338.778s1.044 2.383 2.494.382m-4.89.564s.54 2.257 2.587.577" stroke="#3F2B3B" stroke-miterlimit="10"/><path opacity=".1" d="M233.201 335.624c-.162 2.249-.597 5.858-.597 5.858s-1.807.219-4.601.471a2.317 2.317 0 010-.471c.382-2.748.256-4.872 2.03-5.367 1.665-.45 2.514-.617 3.168-.491z" fill="#000"/><path d="M233.648 335.92s4.926.902 2.262 5.148a1.829 1.829 0 01-.91.751c-.313.109-.617.109-.585-.337l-2.172 2.492s-4.35.512-3.964-2.236c.386-2.749.256-4.872 2.031-5.367 1.774-.495 2.655-.642 3.338-.451z" fill="#FF7B22"/><path d="M232.478 338.778s-1.048 2.383-2.493.382m4.889.564s-.544 2.257-2.591.577" stroke="#3F2B3B" stroke-miterlimit="10"/><path opacity=".1" d="M211.305 342.647a63.266 63.266 0 01-4.731-.268l-1.474-4.961a3.193 3.193 0 01-.134-.905 3.154 3.154 0 013.147-3.056 3.156 3.156 0 013.167 3.036c.017 1.932.033 4.38.025 6.154z" fill="#000"/><path d="M204.844 337.418l1.738 5.854s-2.956-.065-2.148 1.79c0 0 .743.703.999.447 0 0-.386 1.218 1.149 1.218 0 0 1.657.897 2.298.255.642-.641 1.986-1.599 2.116-1.981.081-.251.057-5.147.028-8.525a3.154 3.154 0 00-3.155-3.125 3.154 3.154 0 00-3.025 4.067z" fill="#FF7B22"/><path d="M207.191 344.786s-1.291 1.218-.609 1.937m.053-2.712s-1.194.406-1.194 1.498" stroke="#3F2B3B" stroke-miterlimit="10"/><path opacity=".1" d="M227.634 336.513c0 .306-.044.611-.13.905l-1.377 4.697c-1.454.118-3.086.231-4.812.329 0-1.754 0-4.088.028-5.951a3.155 3.155 0 016.311.02h-.02z" fill="#000"/><path d="M227.751 337.418l-1.738 5.854s2.961-.065 2.153 1.79c0 0-.744.703-.999.447 0 0 .381 1.218-1.154 1.218 0 0-1.657.897-2.298.255-.642-.641-1.982-1.599-2.112-1.981-.081-.251-.057-5.147-.028-8.525a3.149 3.149 0 013.155-3.125 3.151 3.151 0 013.021 4.067z" fill="#FF7B22"/><path d="M225.408 344.786s1.292 1.218.609 1.937m-.04-2.712s1.194.406 1.194 1.498" stroke="#3F2B3B" stroke-miterlimit="10"/><path opacity=".1" d="M215.089 309.59s-6.014-.191-6.205 4.466c-.191 4.656 9.397 2.683 9.397 2.683s4.029-.54 3.326-3.369c-.702-2.83-2.168-3.524-6.518-3.78z" fill="#000"/><path opacity=".1" d="M215.089 309.079s-6.014-.191-6.205 4.465c-.191 4.657 9.397 2.684 9.397 2.684s4.029-.54 3.326-3.37c-.702-2.829-2.168-3.523-6.518-3.779z" fill="#000"/><path d="M215.089 309.335s-6.014-.191-6.205 4.465c-.191 4.656 9.397 2.683 9.397 2.683s4.029-.54 3.326-3.369c-.702-2.83-2.168-3.524-6.518-3.779z" fill="#3F2B3B"/><path opacity=".1" d="M201.672 332.79s2.031.723 2.437 2.107l-2.437-2.107zm28.629-1.023s-1.441.605-1.34 3.13l1.34-3.13z" fill="#000"/><path d="M203.304 344.696c.451-.259.468-1.074.039-1.821-.43-.747-1.143-1.143-1.594-.884-.451.259-.468 1.074-.039 1.822.43.747 1.143 1.142 1.594.883zm28.611-2.277c.43-.744.414-1.557-.035-1.816-.448-.259-1.16.134-1.59.878-.429.744-.414 1.556.035 1.815.449.259 1.161-.134 1.59-.877z" fill="#FF7B22"/><path opacity=".5" d="M203.304 344.696c.451-.259.468-1.074.039-1.821-.43-.747-1.143-1.143-1.594-.884-.451.259-.468 1.074-.039 1.822.43.747 1.143 1.142 1.594.883zm28.611-2.277c.43-.744.414-1.557-.035-1.816-.448-.259-1.16.134-1.59.878-.429.744-.414 1.556.035 1.815.449.259 1.161-.134 1.59-.877z" fill="#fff"/><path opacity=".1" d="M78.213 292.532c6.04 0 10.936-.827 10.936-1.847s-4.896-1.847-10.936-1.847-10.936.827-10.936 1.847 4.896 1.847 10.936 1.847zM35.13 318.728c6.04 0 10.937-.827 10.937-1.847s-4.896-1.847-10.936-1.847-10.936.827-10.936 1.847 4.896 1.847 10.936 1.847z" fill="#FF7B22"/><path d="M23.744 296.206c9.018 0 16.329-1.236 16.329-2.76 0-1.525-7.31-2.761-16.329-2.761-9.018 0-16.329 1.236-16.329 2.761 0 1.524 7.31 2.76 16.33 2.76z" fill="#FF7B22"/><path d="M16.99 288.931a4.717 4.717 0 01-1.559-2.346c-.199-.934.2-2.05 1.089-2.391.999-.382 2.067.308 2.875 1.007.808.698 1.738 1.498 2.798 1.352a4.267 4.267 0 01-1.316-3.987 1.62 1.62 0 01.366-.812c.552-.593 1.559-.337 2.225.13 2.108 1.486 2.7 4.352 2.709 6.934.215-.934.036-1.9.04-2.842.004-.942.268-2.03 1.072-2.525a3.247 3.247 0 011.625-.406c.95-.032 2.006.061 2.655.755.813.861.597 2.31-.105 3.248-.703.938-1.767 1.542-2.745 2.2a6.05 6.05 0 00-1.966 1.872 1.923 1.923 0 00-.146.332h-5.933a16.394 16.394 0 01-3.683-2.521z" fill="#FF7B22"/><path opacity=".1" d="M418.203 307.983c6.04 0 10.936-.827 10.936-1.847 0-1.021-4.896-1.847-10.936-1.847s-10.936.826-10.936 1.847c0 1.02 4.896 1.847 10.936 1.847z" fill="#FF7B22"/><path d="M410.861 297.55s6.238-.191 8.122-1.531c1.884-1.339 9.592-2.935 10.059-.787.467 2.147 9.376 10.672 2.331 10.729-7.046.057-16.362-1.096-18.238-2.241-1.876-1.145-2.274-6.17-2.274-6.17z" fill="#A8A8A8"/><path opacity=".2" d="M431.495 305.218c-7.042.057-16.362-1.096-18.238-2.241-1.429-.868-1.998-3.99-2.189-5.431h-.207s.406 5.029 2.27 6.17c1.864 1.141 11.196 2.298 18.238 2.241 2.03 0 2.737-.739 2.696-1.811-.28.666-1.056 1.072-2.57 1.072z" fill="#000"/></g><defs><linearGradient id="paint0_linear" x1="195.585" y1="288.351" x2="195.585" y2="48.398" gradientUnits="userSpaceOnUse"><stop stop-color="gray" stop-opacity=".25"/><stop offset=".54" stop-color="gray" stop-opacity=".12"/><stop offset="1" stop-color="gray" stop-opacity=".1"/></linearGradient><linearGradient id="paint1_linear" x1="55933.1" y1="193946" x2="55933.1" y2="42491.6" gradientUnits="userSpaceOnUse"><stop stop-color="gray" stop-opacity=".25"/><stop offset=".54" stop-color="gray" stop-opacity=".12"/><stop offset="1" stop-color="gray" stop-opacity=".1"/></linearGradient><linearGradient id="paint2_linear" x1="74150.5" y1="197439" x2="74150.5" y2="57277.8" gradientUnits="userSpaceOnUse"><stop stop-color="gray" stop-opacity=".25"/><stop offset=".54" stop-color="gray" stop-opacity=".12"/><stop offset="1" stop-color="gray" stop-opacity=".1"/></linearGradient><linearGradient id="paint3_linear" x1="-42470.4" y1="195765" x2="-42470.4" y2="55030.7" gradientUnits="userSpaceOnUse"><stop stop-color="gray" stop-opacity=".25"/><stop offset=".54" stop-color="gray" stop-opacity=".12"/><stop offset="1" stop-color="gray" stop-opacity=".1"/></linearGradient><linearGradient id="paint4_linear" x1="25193.2" y1="49227.1" x2="25193.2" y2="41534.4" gradientUnits="userSpaceOnUse"><stop stop-color="gray" stop-opacity=".25"/><stop offset=".54" stop-color="gray" stop-opacity=".12"/><stop offset="1" stop-color="gray" stop-opacity=".1"/></linearGradient><clipPath id="clip0"><path fill="#fff" d="M0 0h462v349H0z"/></clipPath></defs></svg>