<svg width="33" height="32" viewBox="0 0 33 32" fill="none" xmlns="http://www.w3.org/2000/svg">
<path d="M15.672 22.6946C15.736 22.7493 15.8053 22.804 15.8733 22.8573C14.5219 23.7544 12.9354 24.2322 11.3133 24.2306C10.2321 24.2315 9.16128 24.0193 8.16214 23.606C7.163 23.1927 6.25514 22.5865 5.49046 21.8221C4.72579 21.0576 4.1193 20.15 3.70569 19.151C3.29208 18.152 3.07946 17.0812 3.07999 16C3.07985 14.5108 3.4836 13.0495 4.24825 11.7716C5.0129 10.4937 6.10981 9.44719 7.42217 8.7434C8.73454 8.0396 10.2132 7.70492 11.7007 7.77499C13.1883 7.84506 14.6289 8.31727 15.8693 9.14131C15.8027 9.19865 15.736 9.25065 15.6853 9.30931C14.7242 10.1392 13.9531 11.1663 13.4244 12.3208C12.8957 13.4753 12.6218 14.7302 12.6213 16C12.6213 18.5666 13.732 21.0066 15.672 22.6946ZM21.4867 7.76798C19.866 7.76483 18.2808 8.24279 16.932 9.14131C16.9973 9.19865 17.064 9.25065 17.1147 9.30931C19.064 10.9933 20.18 13.4346 20.18 16C20.18 18.5653 19.0667 21.004 17.1293 22.6946C17.064 22.7493 16.9947 22.804 16.928 22.8573C18.2783 23.7547 19.864 24.2326 21.4853 24.2306C22.5751 24.2446 23.6568 24.042 24.6677 23.6347C25.6785 23.2273 26.5984 22.6233 27.374 21.8576C28.1496 21.092 28.7655 20.1799 29.1858 19.1744C29.6062 18.1688 29.8227 17.0898 29.8228 16C29.8228 14.9101 29.6065 13.8311 29.1863 12.8255C28.7661 11.8199 28.1504 10.9078 27.375 10.142C26.5995 9.37618 25.6797 8.772 24.6689 8.36447C23.6581 7.95695 22.5764 7.7542 21.4867 7.76798ZM16.4 9.53332C15.4197 10.3019 14.6274 11.2837 14.0831 12.4042C13.5388 13.5246 13.2569 14.7543 13.2587 16C13.2561 17.2464 13.5376 18.4769 14.082 19.5981C14.6263 20.7194 15.4191 21.7018 16.4 22.4706C17.3807 21.7014 18.1733 20.719 18.7178 19.5979C19.2623 18.4767 19.5444 17.2463 19.5427 16C19.5445 14.7542 19.2624 13.5243 18.7179 12.4038C18.1733 11.2834 17.3806 10.3017 16.4 9.53332Z" fill="white"/>
</svg>
