<svg width="32" height="32" viewBox="0 0 32 32" fill="none" xmlns="http://www.w3.org/2000/svg">
<g clip-path="url(#clip0)">
<path d="M10.35 16.1221C10.35 16.8001 9.81099 17.3161 9.12799 17.3161C8.61699 17.3161 8.23899 17.0271 8.23899 16.4831C8.23899 15.8051 8.76699 15.2611 9.44499 15.2611C9.96199 15.2611 10.351 15.5781 10.351 16.1221H10.35ZM4.47199 13.4281H4.21099C4.12799 13.4281 4.04399 13.4841 4.03299 13.5781L3.79399 15.0621L4.24999 15.0451C4.86099 15.0451 5.33299 14.9621 5.44399 14.2561C5.57199 13.5111 5.09999 13.4281 4.47199 13.4281ZM20.25 13.4281H20C19.9 13.4281 19.833 13.4841 19.822 13.5781L19.589 15.0621L20.033 15.0451C20.755 15.0451 21.255 14.8781 21.255 14.0451C21.249 13.4561 20.722 13.4281 20.249 13.4281H20.25ZM32 6.22205V25.7781C31.9997 26.4853 31.7187 27.1635 31.2186 27.6636C30.7185 28.1637 30.0402 28.4448 29.333 28.4451H2.66599C1.95874 28.4448 1.28053 28.1637 0.780432 27.6636C0.28033 27.1635 -0.000742043 26.4853 -0.00100708 25.7781V6.22205C-0.000742043 5.5148 0.28033 4.83659 0.780432 4.33649C1.28053 3.83639 1.95874 3.55532 2.66599 3.55505H29.333C30.0402 3.55532 30.7185 3.83639 31.2186 4.33649C31.7187 4.83659 31.9997 5.5148 32 6.22205ZM7.12799 13.7441C7.12799 12.5771 6.22799 12.1881 5.19999 12.1881H2.97799C2.90621 12.1886 2.83713 12.2155 2.78386 12.2636C2.73059 12.3117 2.69683 12.3777 2.68899 12.4491L1.77799 18.1211C1.76099 18.2321 1.84499 18.3431 1.95599 18.3431H3.01199C3.16199 18.3431 3.30099 18.1821 3.31799 18.0261L3.56799 16.5481C3.62399 16.1481 4.30099 16.2871 4.56799 16.2871C6.15699 16.2871 7.12899 15.3431 7.12899 13.7431L7.12799 13.7441ZM11.806 14.2331H10.75C10.539 14.2331 10.528 14.5391 10.517 14.6891C10.195 14.2171 9.72799 14.1331 9.19999 14.1331C7.83899 14.1331 6.79999 15.3271 6.79999 16.6441C6.79999 17.7271 7.47799 18.4331 8.56099 18.4331C9.06099 18.4331 9.68299 18.1611 10.033 17.7721C10.0007 17.8844 9.98187 18.0002 9.97699 18.1171C9.97699 18.2451 10.033 18.3391 10.155 18.3391H11.111C11.261 18.3391 11.389 18.1781 11.417 18.0221L11.984 14.4501C12.001 14.3441 11.917 14.2331 11.806 14.2331ZM14.056 19.6721L17.595 14.5271C17.623 14.4991 17.623 14.4711 17.623 14.4331C17.623 14.3391 17.54 14.2391 17.445 14.2391H16.378C16.3283 14.241 16.2799 14.2546 16.2364 14.2788C16.193 14.3029 16.1559 14.3369 16.128 14.3781L14.656 16.5451L14.045 14.4621C14.022 14.3987 13.9806 14.3437 13.9261 14.3041C13.8715 14.2645 13.8063 14.2422 13.739 14.2401H12.7C12.605 14.2401 12.522 14.3401 12.522 14.4341C12.522 14.5011 13.605 17.5901 13.7 17.8841C13.55 18.0951 12.561 19.4731 12.561 19.6401C12.561 19.7401 12.644 19.8181 12.739 19.8181H13.806C13.8559 19.8148 13.9044 19.8001 13.9477 19.7751C13.9911 19.7502 14.0281 19.7156 14.056 19.6741V19.6721ZM22.906 13.7441C22.906 12.5771 22.006 12.1881 20.978 12.1881H18.772C18.6981 12.1875 18.6265 12.2135 18.5703 12.2615C18.5141 12.3094 18.4771 12.376 18.466 12.4491L17.566 18.1161C17.555 18.2271 17.638 18.3381 17.744 18.3381H18.883C18.994 18.3381 19.077 18.2551 19.105 18.1601L19.355 16.5491C19.411 16.1491 20.089 16.2881 20.355 16.2881C21.933 16.2881 22.905 15.3441 22.905 13.7441H22.906ZM27.583 14.2331H26.527C26.316 14.2331 26.305 14.5391 26.288 14.6891C25.982 14.2171 25.51 14.1331 24.971 14.1331C23.61 14.1331 22.571 15.3271 22.571 16.6441C22.571 17.7271 23.249 18.4331 24.332 18.4331C24.849 18.4331 25.471 18.1611 25.804 17.7721C25.787 17.8551 25.748 18.0331 25.748 18.1171C25.748 18.2451 25.804 18.3391 25.926 18.3391H26.887C27.037 18.3391 27.165 18.1781 27.193 18.0221L27.76 14.4501C27.777 14.3441 27.693 14.2331 27.582 14.2331H27.583ZM30.222 12.3831C30.222 12.2721 30.139 12.1891 30.044 12.1891H29.016C28.933 12.1891 28.849 12.2561 28.838 12.3391L27.938 18.1171L27.922 18.1451C27.922 18.2451 28.005 18.3391 28.116 18.3391H29.033C29.172 18.3391 29.311 18.1781 29.322 18.0221L30.222 12.4001V12.3831ZM25.222 15.2611C24.544 15.2611 24.016 15.8001 24.016 16.4831C24.016 17.0221 24.405 17.3161 24.916 17.3161C25.583 17.3161 26.122 16.8051 26.122 16.1221C26.128 15.5781 25.739 15.2611 25.222 15.2611Z" fill="white"/>
</g>
<defs>
<clipPath id="clip0">
<rect width="32" height="32" fill="white"/>
</clipPath>
</defs>
</svg>
