<svg width="32" height="32" viewBox="0 0 32 32" fill="none" xmlns="http://www.w3.org/2000/svg">
<path d="M18.5648 15.7327L14.9712 14.0559C14.6576 13.9103 14.4 14.0735 14.4 14.4207V17.5791C14.4 17.9263 14.6576 18.0895 14.9712 17.9439L18.5632 16.2671C18.8784 16.1199 18.8784 15.8799 18.5648 15.7327ZM16 0.639893C7.5168 0.639893 0.639999 7.51669 0.639999 15.9999C0.639999 24.4831 7.5168 31.3599 16 31.3599C24.4832 31.3599 31.36 24.4831 31.36 15.9999C31.36 7.51669 24.4832 0.639893 16 0.639893ZM16 22.2399C8.1376 22.2399 8 21.5311 8 15.9999C8 10.4687 8.1376 9.75989 16 9.75989C23.8624 9.75989 24 10.4687 24 15.9999C24 21.5311 23.8624 22.2399 16 22.2399Z" fill="white"/>
</svg>
