<svg width="147" height="32" viewBox="0 0 147 32" fill="none" xmlns="http://www.w3.org/2000/svg">
<g clip-path="url(#clip0)">
<path d="M32 16.098C32 7.20605 24.836 -0.00195312 16 -0.00195312C7.16 4.68751e-05 -0.00399971 7.20605 -0.00399971 16.1C-0.00399971 24.134 5.848 30.794 13.496 32.002V20.752H9.436V16.1H13.5V12.55C13.5 8.51605 15.89 6.28805 19.544 6.28805C21.296 6.28805 23.126 6.60205 23.126 6.60205V10.562H21.108C19.122 10.562 18.502 11.804 18.502 13.078V16.098H22.938L22.23 20.75H18.5V32C26.148 30.792 32 24.132 32 16.098Z" fill="white"/>
</g>
<g clip-path="url(#clip1)">
<path d="M32 16.098C32 7.20605 24.836 -0.00195312 16 -0.00195312C7.16 4.68751e-05 -0.00399971 7.20605 -0.00399971 16.1C-0.00399971 24.134 5.848 30.794 13.496 32.002V20.752H9.436V16.1H13.5V12.55C13.5 8.51605 15.89 6.28805 19.544 6.28805C21.296 6.28805 23.126 6.60205 23.126 6.60205V10.562H21.108C19.122 10.562 18.502 11.804 18.502 13.078V16.098H22.938L22.23 20.75H18.5V32C26.148 30.792 32 24.132 32 16.098Z" fill="white"/>
</g>
<g clip-path="url(#clip2)">
<path d="M32 16.098C32 7.20605 24.836 -0.00195312 16 -0.00195312C7.16 4.68751e-05 -0.00399971 7.20605 -0.00399971 16.1C-0.00399971 24.134 5.848 30.794 13.496 32.002V20.752H9.436V16.1H13.5V12.55C13.5 8.51605 15.89 6.28805 19.544 6.28805C21.296 6.28805 23.126 6.60205 23.126 6.60205V10.562H21.108C19.122 10.562 18.502 11.804 18.502 13.078V16.098H22.938L22.23 20.75H18.5V32C26.148 30.792 32 24.132 32 16.098Z" fill="white"/>
</g>
<path fill-rule="evenodd" clip-rule="evenodd" d="M67.9533 1.42137C69.5173 1.34937 70.016 1.33337 74 1.33337C77.984 1.33337 78.4827 1.35071 80.0453 1.42137C81.608 1.49204 82.6747 1.74137 83.608 2.10271C84.5853 2.47204 85.472 3.04937 86.2053 3.79604C86.952 4.52804 87.528 5.41337 87.896 6.39204C88.2587 7.32537 88.5067 8.39204 88.5787 9.95204C88.6507 11.5187 88.6667 12.0174 88.6667 16C88.6667 19.984 88.6493 20.4827 88.5787 22.0467C88.508 23.6067 88.2587 24.6734 87.896 25.6067C87.528 26.5855 86.951 27.4723 86.2053 28.2054C85.472 28.952 84.5853 29.528 83.608 29.896C82.6747 30.2587 81.608 30.5067 80.048 30.5787C78.4827 30.6507 77.984 30.6667 74 30.6667C70.016 30.6667 69.5173 30.6494 67.9533 30.5787C66.3933 30.508 65.3267 30.2587 64.3933 29.896C63.4146 29.528 62.5278 28.951 61.7947 28.2054C61.0485 27.4729 60.4711 26.5866 60.1027 25.608C59.7413 24.6747 59.4933 23.608 59.4213 22.048C59.3493 20.4814 59.3333 19.9827 59.3333 16C59.3333 12.016 59.3507 11.5174 59.4213 9.95471C59.492 8.39204 59.7413 7.32537 60.1027 6.39204C60.4716 5.41348 61.0495 4.52712 61.796 3.79471C62.5281 3.04871 63.414 2.4713 64.392 2.10271C65.3253 1.74137 66.392 1.49337 67.952 1.42137H67.9533ZM79.9267 4.06137C78.38 3.99071 77.916 3.97604 74 3.97604C70.084 3.97604 69.62 3.99071 68.0733 4.06137C66.6427 4.12671 65.8667 4.36537 65.3493 4.56671C64.6653 4.83337 64.176 5.14937 63.6627 5.66271C63.1761 6.13611 62.8016 6.71242 62.5667 7.34937C62.3653 7.86671 62.1267 8.64271 62.0613 10.0734C61.9907 11.62 61.976 12.084 61.976 16C61.976 19.916 61.9907 20.38 62.0613 21.9267C62.1267 23.3574 62.3653 24.1334 62.5667 24.6507C62.8013 25.2867 63.176 25.864 63.6627 26.3374C64.136 26.824 64.7133 27.1987 65.3493 27.4334C65.8667 27.6347 66.6427 27.8734 68.0733 27.9387C69.62 28.0094 70.0827 28.024 74 28.024C77.9173 28.024 78.38 28.0094 79.9267 27.9387C81.3573 27.8734 82.1333 27.6347 82.6507 27.4334C83.3347 27.1667 83.824 26.8507 84.3373 26.3374C84.824 25.864 85.1987 25.2867 85.4333 24.6507C85.6347 24.1334 85.8733 23.3574 85.9387 21.9267C86.0093 20.38 86.024 19.916 86.024 16C86.024 12.084 86.0093 11.62 85.9387 10.0734C85.8733 8.64271 85.6347 7.86671 85.4333 7.34937C85.1667 6.66537 84.8507 6.17604 84.3373 5.66271C83.8639 5.17614 83.2876 4.80165 82.6507 4.56671C82.1333 4.36537 81.3573 4.12671 79.9267 4.06137ZM72.1267 20.5214C73.1729 20.9569 74.3378 21.0157 75.4226 20.6877C76.5073 20.3597 77.4445 19.6653 78.0741 18.723C78.7038 17.7808 78.9867 16.6492 78.8747 15.5215C78.7627 14.3938 78.2627 13.34 77.46 12.54C76.9483 12.0287 76.3296 11.6371 75.6484 11.3936C74.9673 11.15 74.2406 11.0605 73.5207 11.1315C72.8007 11.2025 72.1055 11.4323 71.4851 11.8042C70.8646 12.1762 70.3343 12.681 69.9324 13.2825C69.5305 13.884 69.2669 14.5671 69.1607 15.2827C69.0545 15.9982 69.1082 16.7284 69.3181 17.4207C69.5279 18.113 69.8886 18.7502 70.3743 19.2863C70.8599 19.8225 71.4584 20.2443 72.1267 20.5214ZM68.6693 10.6694C69.3694 9.96934 70.2004 9.41404 71.1151 9.03519C72.0297 8.65633 73.01 8.46134 74 8.46134C74.99 8.46134 75.9703 8.65633 76.8849 9.03519C77.7996 9.41404 78.6306 9.96934 79.3307 10.6694C80.0307 11.3694 80.586 12.2005 80.9648 13.1151C81.3437 14.0297 81.5387 15.01 81.5387 16C81.5387 16.99 81.3437 17.9703 80.9648 18.885C80.586 19.7996 80.0307 20.6307 79.3307 21.3307C77.9169 22.7445 75.9994 23.5387 74 23.5387C72.0006 23.5387 70.0831 22.7445 68.6693 21.3307C67.2556 19.9169 66.4613 17.9994 66.4613 16C66.4613 14.0007 67.2556 12.0832 68.6693 10.6694ZM83.2107 9.58404C83.3841 9.4204 83.523 9.22361 83.6191 9.00534C83.7151 8.78706 83.7664 8.55173 83.7699 8.31328C83.7734 8.07483 83.729 7.8381 83.6393 7.61712C83.5497 7.39614 83.4166 7.19539 83.2479 7.02676C83.0793 6.85813 82.8786 6.72505 82.6576 6.6354C82.4366 6.54574 82.1999 6.50134 81.9614 6.50482C81.723 6.50829 81.4876 6.55958 81.2694 6.65564C81.0511 6.75169 80.8543 6.89057 80.6907 7.06404C80.3724 7.40141 80.1982 7.84954 80.2049 8.31328C80.2117 8.77703 80.3989 9.21988 80.7269 9.54783C81.0548 9.87578 81.4977 10.063 81.9614 10.0698C82.4252 10.0765 82.8733 9.90229 83.2107 9.58404Z" fill="white"/>
<path d="M133.565 15.7327L129.971 14.0559C129.658 13.9103 129.4 14.0735 129.4 14.4207V17.5791C129.4 17.9263 129.658 18.0895 129.971 17.9439L133.563 16.2671C133.878 16.1199 133.878 15.8799 133.565 15.7327ZM131 0.639893C122.517 0.639893 115.64 7.51669 115.64 15.9999C115.64 24.4831 122.517 31.3599 131 31.3599C139.483 31.3599 146.36 24.4831 146.36 15.9999C146.36 7.51669 139.483 0.639893 131 0.639893ZM131 22.2399C123.138 22.2399 123 21.5311 123 15.9999C123 10.4687 123.138 9.75989 131 9.75989C138.862 9.75989 139 10.4687 139 15.9999C139 21.5311 138.862 22.2399 131 22.2399Z" fill="white"/>
<defs>
<clipPath id="clip0">
<rect width="32" height="32" fill="white"/>
</clipPath>
<clipPath id="clip1">
<rect width="32" height="32" fill="white"/>
</clipPath>
<clipPath id="clip2">
<rect width="32" height="32" fill="white"/>
</clipPath>
</defs>
</svg>
