<svg width="19" height="19" viewBox="0 0 19 19" fill="none" xmlns="http://www.w3.org/2000/svg">
<path d="M17.9694 9.01348L10.813 0.672957C10.0431 -0.224319 8.79039 -0.224319 8.02049 0.672957C7.2506 1.57023 7.2506 3.03025 8.02049 3.92753L10.767 7.12851H1.88326C0.845214 7.12851 0 8.11357 0 9.32341C0 10.5332 0.845214 11.5183 1.88326 11.5183H10.767L8.02049 14.7192C7.2506 15.6165 7.2506 17.0765 8.02049 17.9738C8.40542 18.4224 8.9109 18.6472 9.41713 18.6472C9.92335 18.6472 10.4281 18.4233 10.8138 17.9738L17.9702 9.6333C18.1163 9.4621 18.1163 9.18468 17.9694 9.01348Z" fill="black"/>
</svg>
