<svg width="32" height="32" fill="none" xmlns="http://www.w3.org/2000/svg"><path d="M1.28 5.952A1.28 1.28 0 000 7.232v17.536c0 .707.574 1.28 1.28 1.28h29.44a1.28 1.28 0 001.28-1.28V7.232a1.28 1.28 0 00-1.28-1.28H1.28zm17.832 5.989c.779 0 1.403.172 1.801.332l-.272 1.711-.18-.091a3.496 3.496 0 00-1.504-.303c-.786 0-1.15.35-1.15.68-.005.369.425.613 1.127.978 1.159.564 1.695 1.247 1.687 2.145-.016 1.639-1.386 2.698-3.498 2.698-.9-.01-1.769-.2-2.238-.421l.282-1.768.259.126c.66.295 1.087.414 1.891.414.577 0 1.197-.242 1.202-.771.004-.346-.259-.592-1.041-.979-.762-.378-1.772-1.01-1.761-2.145.012-1.535 1.41-2.606 3.395-2.606zm-16.282.251h3.243c.437.017.79.157.911.631l.699 3.608v.002l.21 1.081 1.969-5.322h2.13l-3.166 7.79-2.128.002-1.694-6.286c1.008.534 1.866 1.152 2.363 2.002a5.645 5.645 0 00-.513-.872c-.252-.348-.795-.798-1.022-.99-.791-.667-1.866-1.206-3.027-1.491l.025-.155zm10.009.009h2.083l-1.303 7.778h-2.083l1.303-7.778zm11.765 0h1.578l1.652 7.778H25.94s-.188-.893-.249-1.166l-2.614-.003c-.08.21-.43 1.169-.43 1.169h-2.143l3.031-7.132c.215-.507.58-.646 1.069-.646zm.155 2.092c-.102.29-.28.757-.269.736 0 0-.641 1.71-.809 2.154l1.685-.001-.47-2.225-.137-.664z" fill="#fff"/></svg>