<svg width="33" height="32" fill="none" xmlns="http://www.w3.org/2000/svg"><path d="M15.672 22.695c.064.054.133.109.201.162a8.23 8.23 0 01-4.56 1.374A8.226 8.226 0 013.08 16a8.233 8.233 0 0112.79-6.859c-.067.058-.134.11-.185.168A8.844 8.844 0 0012.621 16a8.87 8.87 0 003.051 6.695zm5.815-14.927a8.187 8.187 0 00-4.555 1.373c.065.058.132.11.183.168A8.84 8.84 0 0120.18 16a8.886 8.886 0 01-3.05 6.695l-.202.162a8.215 8.215 0 004.557 1.374 8.233 8.233 0 10.002-16.463zM16.4 9.533A8.202 8.202 0 0013.259 16a8.198 8.198 0 003.141 6.47A8.208 8.208 0 0019.543 16 8.201 8.201 0 0016.4 9.533z" fill="#fff"/></svg>