<svg width="32" height="32" fill="none" xmlns="http://www.w3.org/2000/svg"><g clip-path="url(#clip0)"><path d="M10.35 16.122c0 .678-.539 1.194-1.222 1.194-.511 0-.889-.289-.889-.833 0-.678.528-1.222 1.206-1.222.517 0 .906.317.906.861h-.001zm-5.878-2.694h-.261c-.083 0-.167.056-.178.15l-.239 1.484.456-.017c.611 0 1.083-.083 1.194-.789.128-.745-.344-.828-.972-.828zm15.778 0H20c-.1 0-.167.056-.178.15l-.233 1.484.444-.017c.722 0 1.222-.167 1.222-1-.006-.589-.533-.617-1.006-.617h.001zM32 6.222v19.556a2.668 2.668 0 01-2.667 2.667H2.666a2.668 2.668 0 01-2.667-2.667V6.222a2.668 2.668 0 012.667-2.667h26.667A2.668 2.668 0 0132 6.222zM7.128 13.744c0-1.167-.9-1.556-1.928-1.556H2.978a.293.293 0 00-.289.261l-.911 5.672c-.017.111.067.222.178.222h1.056c.15 0 .289-.16.306-.317l.25-1.478c.056-.4.733-.26 1-.26 1.589 0 2.561-.945 2.561-2.545l-.001.001zm4.678.49H10.75c-.211 0-.222.305-.233.455-.322-.472-.789-.556-1.317-.556-1.361 0-2.4 1.194-2.4 2.511 0 1.083.678 1.79 1.761 1.79.5 0 1.122-.273 1.472-.662a1.47 1.47 0 00-.056.345c0 .128.056.222.178.222h.956c.15 0 .278-.16.306-.317l.567-3.572c.017-.106-.067-.217-.178-.217zm2.25 5.438l3.539-5.145c.028-.028.028-.056.028-.094 0-.094-.083-.194-.178-.194h-1.067a.316.316 0 00-.25.14l-1.472 2.166-.611-2.083a.338.338 0 00-.306-.222H12.7c-.095 0-.178.1-.178.194 0 .067 1.083 3.156 1.178 3.45-.15.211-1.139 1.59-1.139 1.756 0 .1.083.178.178.178h1.067a.327.327 0 00.25-.144v-.002zm8.85-5.928c0-1.167-.9-1.556-1.928-1.556h-2.206a.307.307 0 00-.306.261l-.9 5.667c-.011.111.072.222.178.222h1.139c.111 0 .194-.083.222-.178l.25-1.61c.056-.4.734-.262 1-.262 1.578 0 2.55-.944 2.55-2.544h.001zm4.677.49h-1.056c-.211 0-.222.305-.239.455-.306-.472-.778-.556-1.317-.556-1.361 0-2.4 1.194-2.4 2.511 0 1.083.678 1.79 1.761 1.79.517 0 1.139-.273 1.472-.662-.017.083-.056.261-.056.345 0 .128.056.222.178.222h.961c.15 0 .278-.16.306-.317l.567-3.572c.017-.106-.067-.217-.178-.217h.001zm2.639-1.85c0-.112-.083-.195-.178-.195h-1.028c-.083 0-.167.067-.178.15l-.9 5.778-.016.028c0 .1.083.194.194.194h.917c.139 0 .278-.16.289-.317l.9-5.622v-.017zm-5 2.877c-.678 0-1.206.54-1.206 1.222 0 .54.389.833.9.833.667 0 1.206-.51 1.206-1.194.006-.544-.383-.86-.9-.86z" fill="#fff"/></g><defs><clipPath id="clip0"><path fill="#fff" d="M0 0h32v32H0z"/></clipPath></defs></svg>