<svg width="147" height="32" fill="none" xmlns="http://www.w3.org/2000/svg"><g clip-path="url(#clip0)"><path d="M32 16.098c0-8.892-7.164-16.1-16-16.1C7.16 0-.004 7.206-.004 16.1c0 8.034 5.852 14.694 13.5 15.902v-11.25h-4.06V16.1H13.5v-3.55c0-4.034 2.39-6.262 6.044-6.262 1.752 0 3.582.314 3.582.314v3.96h-2.018c-1.986 0-2.606 1.242-2.606 2.516v3.02h4.436l-.708 4.652H18.5V32C26.148 30.792 32 24.132 32 16.098z" fill="#fff"/></g><g clip-path="url(#clip1)"><path d="M32 16.098c0-8.892-7.164-16.1-16-16.1C7.16 0-.004 7.206-.004 16.1c0 8.034 5.852 14.694 13.5 15.902v-11.25h-4.06V16.1H13.5v-3.55c0-4.034 2.39-6.262 6.044-6.262 1.752 0 3.582.314 3.582.314v3.96h-2.018c-1.986 0-2.606 1.242-2.606 2.516v3.02h4.436l-.708 4.652H18.5V32C26.148 30.792 32 24.132 32 16.098z" fill="#fff"/></g><g clip-path="url(#clip2)"><path d="M32 16.098c0-8.892-7.164-16.1-16-16.1C7.16 0-.004 7.206-.004 16.1c0 8.034 5.852 14.694 13.5 15.902v-11.25h-4.06V16.1H13.5v-3.55c0-4.034 2.39-6.262 6.044-6.262 1.752 0 3.582.314 3.582.314v3.96h-2.018c-1.986 0-2.606 1.242-2.606 2.516v3.02h4.436l-.708 4.652H18.5V32C26.148 30.792 32 24.132 32 16.098z" fill="#fff"/></g><path fill-rule="evenodd" clip-rule="evenodd" d="M67.953 1.421c1.564-.072 2.063-.088 6.047-.088 3.984 0 4.483.018 6.045.088 1.563.071 2.63.32 3.563.682a7.205 7.205 0 012.597 1.693 7.163 7.163 0 011.691 2.596c.363.933.61 2 .683 3.56.072 1.567.088 2.065.088 6.048 0 3.984-.018 4.483-.088 6.047-.071 1.56-.32 2.626-.683 3.56a7.195 7.195 0 01-1.69 2.598 7.192 7.192 0 01-2.598 1.691c-.933.363-2 .61-3.56.683-1.565.072-2.064.088-6.048.088s-4.483-.018-6.047-.088c-1.56-.071-2.626-.32-3.56-.683a7.197 7.197 0 01-2.598-1.69 7.189 7.189 0 01-1.692-2.598c-.362-.933-.61-2-.682-3.56-.072-1.567-.088-2.065-.088-6.048 0-3.984.018-4.483.088-6.045.071-1.563.32-2.63.682-3.563a7.194 7.194 0 011.693-2.597 7.19 7.19 0 012.596-1.692c.933-.362 2-.61 3.56-.682h.001zm11.974 2.64c-1.547-.07-2.011-.085-5.927-.085-3.916 0-4.38.015-5.927.085-1.43.066-2.206.304-2.724.506a4.554 4.554 0 00-1.686 1.096 4.55 4.55 0 00-1.096 1.686c-.202.518-.44 1.294-.506 2.724-.07 1.547-.085 2.011-.085 5.927 0 3.916.015 4.38.085 5.927.066 1.43.304 2.206.506 2.724a4.535 4.535 0 001.096 1.686c.473.487 1.05.862 1.686 1.096.518.202 1.294.44 2.724.506 1.547.07 2.01.085 5.927.085s4.38-.015 5.927-.085c1.43-.066 2.206-.304 2.724-.506a4.555 4.555 0 001.686-1.096 4.552 4.552 0 001.096-1.686c.202-.518.44-1.294.506-2.724.07-1.547.085-2.011.085-5.927 0-3.916-.015-4.38-.085-5.927-.066-1.43-.304-2.206-.506-2.724a4.553 4.553 0 00-1.096-1.686 4.55 4.55 0 00-1.686-1.096c-.518-.202-1.294-.44-2.724-.506zm-7.8 16.46a4.892 4.892 0 005.333-7.981 4.893 4.893 0 10-5.333 7.981zm-3.458-9.852a7.539 7.539 0 1110.662 10.662 7.539 7.539 0 01-10.662-10.662zm14.542-1.085a1.784 1.784 0 00-.553-2.949 1.783 1.783 0 10.553 2.949z" fill="#fff"/><path d="M133.565 15.733l-3.594-1.677c-.313-.146-.571.018-.571.365v3.158c0 .347.258.51.571.365l3.592-1.677c.315-.147.315-.387.002-.534zM131 .64c-8.483 0-15.36 6.877-15.36 15.36s6.877 15.36 15.36 15.36 15.36-6.877 15.36-15.36S139.483.64 131 .64zm0 21.6c-7.862 0-8-.709-8-6.24 0-5.531.138-6.24 8-6.24s8 .709 8 6.24c0 5.531-.138 6.24-8 6.24z" fill="#fff"/><defs><clipPath id="clip0"><path fill="#fff" d="M0 0h32v32H0z"/></clipPath><clipPath id="clip1"><path fill="#fff" d="M0 0h32v32H0z"/></clipPath><clipPath id="clip2"><path fill="#fff" d="M0 0h32v32H0z"/></clipPath></defs></svg>