<svg width="137" height="81" viewBox="0 0 137 81" fill="none" xmlns="http://www.w3.org/2000/svg">
<path d="M44.8934 23.2931C45.2748 23.497 45.7097 23.6134 46.1717 23.6134C46.8026 23.6134 47.3829 23.3951 47.8457 23.0333C48.096 23.315 48.9612 24.2819 49.926 25.2789C47.7319 25.2835 45.5062 25.3212 43.2917 25.3824C44.0455 24.4344 44.6861 23.5741 44.8934 23.2931ZM48.2723 20.8759C48.2723 22.0369 47.3294 22.9811 46.1717 22.9811C45.0132 22.9811 44.0711 22.0369 44.0711 20.8759C44.0711 19.7157 45.0132 18.7708 46.1717 18.7708C47.3294 18.7708 48.2723 19.7157 48.2723 20.8759ZM70.7333 37.0089C68.6236 37.2113 66.639 36.7105 64.9786 35.582C64.8738 35.5133 64.7736 35.4347 64.6703 35.3622L64.5166 35.2519L64.3681 35.1303L64.0696 34.8909L63.7824 34.6303C63.4078 34.2843 63.0679 33.9338 62.7747 33.538C62.48 33.146 62.2154 32.7313 61.9969 32.2834C61.7805 31.8347 61.6064 31.3558 61.4693 30.8535C61.1919 29.8473 61.0924 28.74 61.1143 27.5926C61.1346 26.4422 61.2755 25.2585 61.5069 24.0341C61.0751 24.4918 60.7201 25.0153 60.4035 25.5622C58.1122 25.4156 55.6822 25.3326 53.1828 25.2978C50.9895 23.3898 48.8859 21.9199 48.7336 21.8141C48.8406 21.521 48.9024 21.206 48.9024 20.8759C48.9024 20.3457 48.7479 19.8509 48.4864 19.431C49.1406 18.8705 51.193 17.0705 53.1037 14.9819C55.4146 12.4552 55.8344 11.1923 55.2043 10.7708C54.5742 10.35 52.4736 12.4552 51.0031 13.9289C49.727 15.2077 47.8193 17.7541 47.337 18.4044C46.9827 18.2367 46.5885 18.1393 46.1717 18.1393C45.6358 18.1393 45.1376 18.2972 44.7155 18.5653C44.1216 17.9187 42.0104 15.6489 40.6334 14.5309C39.0166 13.2196 36.708 11.3464 36.1253 11.8305C35.5427 12.3155 36.0922 13.5278 38.6533 15.7984C40.757 17.6627 42.9699 19.2285 43.695 19.7301C43.5337 20.079 43.4402 20.4665 43.4402 20.8759C43.4402 21.3715 43.5744 21.8353 43.805 22.2363C43.3995 22.5808 41.926 23.8536 40.3183 25.4791C26.0436 26.0071 13.0516 27.4022 13.0516 27.4022C9.34258 27.8237 10.4596 28.8759 10.4596 28.8759C14.9179 28.2528 27.0189 27.9861 38.131 27.8758C36.671 29.6759 36.4517 30.6306 36.9823 30.9857C37.6094 31.4041 39.6927 29.3216 41.1617 27.8494C45.4474 27.8169 49.4549 27.8056 52.6552 27.8033C54.1544 29.0399 55.9166 30.3972 56.4246 29.9871C56.8339 29.6562 56.7005 28.9658 55.7364 27.8041C57.5002 27.8056 58.7905 27.8101 59.4335 27.8124C59.1109 28.8858 58.9533 30.0392 59.0257 31.2251C59.0686 31.9125 59.196 32.6067 59.4063 33.2835C59.6241 33.958 59.9271 34.6121 60.3048 35.2179C60.6733 35.829 61.1391 36.3804 61.6253 36.8737C62.1009 37.3654 62.6481 37.8005 63.2194 38.2001C63.8005 38.5914 64.4276 38.9207 65.0826 39.1873C65.7383 39.4509 66.4287 39.6315 67.1237 39.7387C68.5173 39.9585 69.9373 39.8324 71.2383 39.4434C72.5399 39.0499 73.7338 38.3927 74.7227 37.5255C75.2149 37.0897 75.6596 36.6063 76.0251 36.0715C76.3914 35.539 76.6854 34.9581 76.8414 34.35C75.9272 35.2006 74.927 35.786 73.8883 36.218C72.852 36.6448 71.7855 36.9197 70.7333 37.0089Z" fill="white"/>
<path d="M65.7086 25.7186H64.4484L62.6108 27.8147H64.4484L65.7086 25.7186Z" fill="white"/>
<path d="M68.439 27.4026V25.7189H66.0972L65.0781 27.4026H68.439Z" fill="white"/>
<path d="M74.7411 27.8146L72.9035 25.7185H71.644L72.9035 27.8146H74.7411Z" fill="white"/>
<path d="M68.9131 27.4026H72.274L71.2557 25.7189H68.9131V27.4026Z" fill="white"/>
<path d="M68.8593 0.186501H68.4387L67.8086 20.8765H69.4894L68.8593 0.186501Z" fill="white"/>
<path d="M87.9866 24.8606C88.7825 24.0229 89.4503 23.2751 89.6659 23.0334C90.1287 23.3952 90.709 23.6135 91.3399 23.6135C91.8019 23.6135 92.2368 23.4964 92.6189 23.2933C92.7946 23.5312 93.2807 24.1861 93.8852 24.9581C91.9172 24.9044 89.9417 24.8697 87.9866 24.8606ZM93.4405 20.8761C93.4405 22.0371 92.4984 22.9813 91.3399 22.9813C90.1822 22.9813 89.2393 22.0371 89.2393 20.8761C89.2393 19.7151 90.1822 18.7709 91.3399 18.7709C92.4984 18.7709 93.4405 19.7151 93.4405 20.8761ZM124.245 26.9817C124.245 26.9817 111.123 25.5722 96.7644 25.0495C95.3293 23.6332 94.0759 22.55 93.7073 22.2358C93.938 21.8354 94.0714 21.3716 94.0714 20.8761C94.0714 20.4667 93.9779 20.0792 93.8166 19.7302C94.5417 19.2287 96.7554 17.6628 98.8583 15.7978C101.419 13.528 101.97 12.3156 101.386 11.8307C100.804 11.3458 98.4942 13.2198 96.879 14.5311C95.5012 15.649 93.3908 17.9189 92.7968 18.5655C92.374 18.2973 91.8758 18.1394 91.3399 18.1394C90.9231 18.1394 90.5289 18.2361 90.1746 18.4046C89.693 17.7535 87.7846 15.2079 86.5085 13.9291C85.038 12.4554 82.9374 10.3502 82.3073 10.7709C81.6772 11.1924 82.0977 12.4554 84.4079 14.9813C86.3186 17.0706 88.3717 18.8699 89.0252 19.4311C88.7629 19.8511 88.6091 20.3451 88.6091 20.8761C88.6091 21.2062 88.671 21.5212 88.778 21.8143C88.6378 21.9117 86.8326 23.1731 84.83 24.8682C82.0781 24.8961 79.4024 24.9807 76.894 25.1409L77.4043 27.3941C77.4043 27.3941 79.2102 27.3843 82.1445 27.382C80.8511 28.8013 80.631 29.6179 81.0878 29.9872C81.6538 30.4442 83.7808 28.7039 85.3636 27.3828C88.3853 27.3858 92.0469 27.3979 95.9451 27.4266C96.077 27.5701 96.2052 27.7053 96.3273 27.8277C97.7985 29.3006 99.8992 31.4065 100.529 30.9851C101.1 30.6044 100.804 29.5287 99.0279 27.4538C110.178 27.5633 122.36 27.8292 126.838 28.4554C126.838 28.4554 127.955 27.4024 124.245 26.9817Z" fill="white"/>
<path d="M44.2808 20.6656C44.2808 21.3636 44.8453 21.9286 45.541 21.9286C46.2374 21.9286 46.802 21.3636 46.802 20.6656C46.802 19.9684 46.2374 19.4026 45.541 19.4026C44.8453 19.4026 44.2808 19.9684 44.2808 20.6656Z" fill="white"/>
<path d="M48.272 30.5605C45.9611 30.9812 45.5405 29.5702 45.5405 29.5702C46.1714 32.1596 48.0617 31.6134 48.0617 31.6134C48.0617 31.6134 49.1124 32.6656 51.4226 33.0864C53.7335 33.5079 53.8495 31.0401 53.8495 31.0401L51.0254 29.5702C51.0254 29.5702 50.5822 30.139 48.272 30.5605Z" fill="white"/>
<path d="M91.9709 21.9289C92.6666 21.9289 93.2311 21.3631 93.2311 20.6659C93.2311 19.968 92.6666 19.4029 91.9709 19.4029C91.2745 19.4029 90.71 19.968 90.71 20.6659C90.71 21.3631 91.2745 21.9289 91.9709 21.9289Z" fill="white"/>
<path d="M89.2392 30.5605C86.929 30.139 86.4866 29.5702 86.4866 29.5702L83.6616 31.0401C83.6616 31.0401 83.7777 33.5079 86.0879 33.0864C88.3995 32.6656 89.4495 31.6134 89.4495 31.6134C89.4495 31.6134 91.3398 32.1596 91.9707 29.5702C91.9707 29.5702 91.5501 30.9812 89.2392 30.5605Z" fill="white"/>
<g opacity="0.979996">
<g opacity="0.979996">
<path opacity="0.979996" d="M9.3914 63.566C10.5273 63.566 11.4724 63.35 12.2269 62.9164C12.9814 62.4829 13.5828 61.9141 14.0321 61.2093C14.4813 60.5038 14.7948 59.7016 14.9727 58.8005C15.1513 57.9009 15.2403 56.9914 15.2403 56.0744V46.9512H17.0198V56.0744C17.0198 57.2973 16.8841 58.4568 16.6128 59.5528C16.3422 60.6489 15.9051 61.6127 15.3036 62.4451C14.7014 63.2775 13.9175 63.9399 12.952 64.4324C11.985 64.9257 10.8069 65.1719 9.41702 65.1719C7.99324 65.1719 6.79332 64.9128 5.81876 64.3947C4.84419 63.8765 4.06032 63.1929 3.46714 62.3431C2.87321 61.4941 2.44962 60.5257 2.19486 59.438C1.94086 58.3511 1.81348 57.2293 1.81348 56.0744V46.9512H3.56814V56.0744C3.56814 57.0262 3.66085 57.9515 3.84853 58.8519C4.0347 59.7522 4.35201 60.5507 4.80123 61.2479C5.25045 61.9443 5.84815 62.5048 6.59434 62.9293C7.33977 63.3545 8.27287 63.566 9.3914 63.566Z" fill="white"/>
</g>
</g>
<g opacity="0.979996">
<g opacity="0.979996">
<path opacity="0.979996" d="M21.2661 65.0444V46.9762H23.0457V57.4757L32.9888 46.9513H34.9462L27.5718 54.9014L35.3276 65.0444H33.3701L26.4532 55.9468L23.0457 59.4895V65.0444H21.2661Z" fill="white"/>
</g>
</g>
<g opacity="0.979996">
<g opacity="0.979996">
<path opacity="0.979996" d="M39.3972 56.7878H45.2966C45.8212 56.7878 46.3005 56.6729 46.7332 56.4433C47.1658 56.2144 47.5344 55.9047 47.8389 55.5135C48.1441 55.1229 48.3816 54.6811 48.5519 54.1886C48.7207 53.6953 48.8052 53.1779 48.8052 52.634C48.8052 52.0902 48.7079 51.5682 48.5135 51.0667C48.3183 50.5659 48.0552 50.1285 47.7251 49.7539C47.3942 49.3807 47.0045 49.0831 46.5553 48.8626C46.1053 48.642 45.635 48.531 45.1436 48.531H39.3972V56.7878ZM37.6177 65.0446V46.9515H45.2461C46.0254 46.9515 46.7415 47.1162 47.3942 47.4478C48.0469 47.7794 48.6107 48.2122 49.0855 48.747C49.5596 49.2825 49.929 49.8906 50.1913 50.5697C50.4543 51.2495 50.5862 51.9376 50.5862 52.634C50.5862 53.2965 50.4882 53.9295 50.293 54.5323C50.0978 55.135 49.8265 55.6789 49.4797 56.1631C49.1315 56.6473 48.7117 57.0551 48.221 57.3868C47.7288 57.7176 47.1779 57.9427 46.5681 58.062L50.9925 65.0446H48.9838L44.7373 58.368H39.3972V65.0446H37.6177Z" fill="white"/>
</g>
</g>
<g opacity="0.979996">
<g opacity="0.979996">
<path opacity="0.979996" d="M64.19 57.9857L60.5541 49.0408L56.8669 57.9857H64.19ZM59.8162 46.9515H61.3161L68.8179 65.0446H66.9366L64.5971 59.3869H56.4847L54.1716 65.0446H52.2646L59.8162 46.9515Z" fill="white"/>
</g>
</g>
<g opacity="0.979996">
<path opacity="0.979996" d="M71.4111 46.9513H73.1907V65.0444H71.4111V46.9513Z" fill="white"/>
</g>
<g opacity="0.979996">
<g opacity="0.979996">
<path opacity="0.979996" d="M79.4968 50.264V65.0441H77.7173V46.951H79.0898L91.0408 62.012V46.9759H92.8211V65.0441H91.27L79.4968 50.264Z" fill="white"/>
</g>
</g>
<g opacity="0.979996">
<path opacity="0.979996" d="M97.3472 46.9513H99.1267V65.0444H97.3472V46.9513Z" fill="white"/>
</g>
<g opacity="0.979996">
<g opacity="0.979996">
<path opacity="0.979996" d="M113.621 57.9857L109.985 49.0408L106.298 57.9857H113.621ZM109.247 46.9515H110.747L118.249 65.0446H116.368L114.028 59.3869H105.916L103.603 65.0446H101.696L109.247 46.9515Z" fill="white"/>
</g>
</g>
<g opacity="0.979996">
<g opacity="0.979996">
<path opacity="0.979996" d="M122.622 50.264V65.0441H120.843V46.951H122.215L134.166 62.012V46.9759H135.947V65.0441H134.395L122.622 50.264Z" fill="white"/>
</g>
</g>
<g opacity="0.979996">
<g opacity="0.979996">
<path opacity="0.979996" d="M7.61561 75.5818L5.29339 69.8698L2.93952 75.5818H7.61561ZM4.82307 68.5359H5.78029L10.571 80.0898H9.36876L7.87564 76.4777H2.69606L1.21801 80.0898H0L4.82307 68.5359Z" fill="white"/>
</g>
</g>
<g opacity="0.979996">
<g opacity="0.979996">
<path opacity="0.979996" d="M19.9718 79.0797V80.0888H12.2266V68.5349H19.8256V69.544H13.3632V73.7098H18.9972V74.6699H13.3632V79.0797H19.9718Z" fill="white"/>
</g>
</g>
<g opacity="0.979996">
<g opacity="0.979996">
<path opacity="0.979996" d="M23.2521 74.8168H27.0185C27.3539 74.8168 27.6606 74.7428 27.9365 74.597C28.2124 74.4504 28.4483 74.2525 28.642 74.0033C28.8372 73.7532 28.9887 73.4715 29.0972 73.1565C29.205 72.8423 29.26 72.5114 29.26 72.164C29.26 71.8165 29.1975 71.4834 29.0731 71.1631C28.9487 70.8428 28.7807 70.5641 28.5696 70.3254C28.3578 70.0867 28.1091 69.8964 27.8219 69.7559C27.5363 69.6146 27.2348 69.5444 26.9212 69.5444H23.2521V74.8168ZM22.1147 80.0884V68.5352H26.9861C27.4843 68.5352 27.9418 68.641 28.3578 68.8525C28.7746 69.064 29.1349 69.3404 29.4379 69.6826C29.7409 70.024 29.9768 70.4123 30.1449 70.8459C30.3122 71.2794 30.3966 71.7191 30.3966 72.164C30.3966 72.587 30.3341 72.9911 30.209 73.3763C30.0846 73.7615 29.912 74.109 29.6897 74.418C29.4681 74.7269 29.2005 74.9875 28.8862 75.199C28.5726 75.4105 28.2207 75.5548 27.8302 75.6303L30.6559 80.0884H29.3731L26.6612 75.8252H23.2521V80.0884H22.1147Z" fill="white"/>
</g>
</g>
<g opacity="0.979996">
<path opacity="0.979996" d="M32.7183 68.5349H33.8556V80.0889H32.7183V68.5349Z" fill="white"/>
</g>
<g opacity="0.979996">
<g opacity="0.979996">
<path opacity="0.979996" d="M43.1107 75.581L40.7885 69.869L38.4346 75.581H43.1107ZM40.3182 68.535H41.2754L46.0661 80.089H44.8639L43.3708 76.4768H38.1912L36.7131 80.089H35.4951L40.3182 68.535Z" fill="white"/>
</g>
</g>
<g opacity="0.979996">
<g opacity="0.979996">
<path opacity="0.979996" d="M47.7212 80.0888V68.5349H48.8586V79.0797H55.5154V80.0888H47.7212Z" fill="white"/>
</g>
</g>
<g opacity="0.979996">
<g opacity="0.979996">
<path opacity="0.979996" d="M61.2796 68.5349L65.4039 78.6733L69.5125 68.5349H70.6973L65.8908 80.0889H64.9012L60.0947 68.5349H61.2796Z" fill="white"/>
</g>
</g>
<g opacity="0.979996">
<g opacity="0.979996">
<path opacity="0.979996" d="M80.0978 79.0797V80.0888H72.3525V68.5349H79.9515V69.544H73.4891V73.7098H79.1232V74.6699H73.4891V79.0797H80.0978Z" fill="white"/>
</g>
</g>
<g opacity="0.979996">
<g opacity="0.979996">
<path opacity="0.979996" d="M91.3351 68.5349V80.0889H90.215V74.6866H83.3788V80.0889H82.2422V68.5349H83.3788V73.6774H90.215V68.5349H91.3351Z" fill="white"/>
</g>
</g>
<g opacity="0.979996">
<path opacity="0.979996" d="M94.2246 68.5349H95.362V80.0889H94.2246V68.5349Z" fill="white"/>
</g>
<g opacity="0.979996">
<g opacity="0.979996">
<path opacity="0.979996" d="M97.4883 74.2303C97.4883 73.5362 97.6096 72.845 97.8531 72.1561C98.0973 71.4672 98.4508 70.8516 98.9173 70.3093C99.3824 69.7669 99.956 69.3243 100.638 68.9829C101.32 68.6414 102.094 68.47 102.96 68.47C103.988 68.47 104.868 68.7041 105.598 69.1702C106.329 69.6363 106.868 70.2443 107.214 70.9921L106.321 71.5458C106.137 71.1659 105.913 70.8463 105.647 70.5857C105.382 70.3251 105.098 70.1136 104.795 69.9512C104.492 69.7881 104.178 69.6718 103.853 69.6008C103.529 69.5305 103.209 69.495 102.895 69.495C102.202 69.495 101.59 69.6363 101.06 69.9188C100.53 70.2005 100.083 70.5691 99.7208 71.0254C99.3575 71.4801 99.0847 71.993 98.9008 72.5625C98.7161 73.132 98.6249 73.7099 98.6249 74.2961C98.6249 74.9366 98.7349 75.5484 98.9573 76.1346C99.1789 76.7207 99.4826 77.2382 99.8663 77.6884C100.251 78.1393 100.706 78.4966 101.231 78.7625C101.755 79.0291 102.326 79.1613 102.944 79.1613C103.269 79.1613 103.601 79.1205 103.942 79.0389C104.284 78.9581 104.613 78.8274 104.933 78.6492C105.252 78.4694 105.547 78.2473 105.818 77.9814C106.088 77.7156 106.316 77.393 106.5 77.0138L107.441 77.501C107.257 77.9354 106.997 78.3176 106.662 78.6492C106.326 78.9793 105.953 79.2587 105.542 79.4869C105.13 79.715 104.695 79.888 104.234 80.0073C103.774 80.1267 103.322 80.1863 102.878 80.1863C102.089 80.1863 101.363 80.0126 100.703 79.6651C100.043 79.3184 99.4743 78.866 98.998 78.3062C98.5216 77.748 98.1508 77.1135 97.8855 76.4027C97.6202 75.6927 97.4883 74.9691 97.4883 74.2303Z" fill="white"/>
</g>
</g>
<g opacity="0.979996">
<g opacity="0.979996">
<path opacity="0.979996" d="M109.39 80.0888V68.5349H110.527V79.0797H117.184V80.0888H109.39Z" fill="white"/>
</g>
</g>
<g opacity="0.979996">
<g opacity="0.979996">
<path opacity="0.979996" d="M126.602 79.0797V80.0888H118.856V68.5349H126.455V69.544H119.993V73.7098H125.627V74.6699H119.993V79.0797H126.602Z" fill="white"/>
</g>
</g>
<g opacity="0.979996">
<g opacity="0.979996">
<path opacity="0.979996" d="M135.483 70.6992C135.158 70.3313 134.725 70.0322 134.183 69.8041C133.643 69.5767 133.026 69.4627 132.333 69.4627C131.315 69.4627 130.574 69.6553 130.108 70.0405C129.643 70.4258 129.41 70.9492 129.41 71.6109C129.41 71.9584 129.472 72.2431 129.596 72.4652C129.72 72.6881 129.913 72.8799 130.173 73.0431C130.434 73.2055 130.766 73.3467 131.171 73.4661C131.578 73.5854 132.057 73.7048 132.609 73.8241C133.226 73.954 133.78 74.1006 134.274 74.2637C134.766 74.4261 135.185 74.6293 135.531 74.8733C135.878 75.118 136.143 75.4134 136.327 75.7601C136.511 76.1076 136.603 76.5411 136.603 77.0623C136.603 77.5941 136.5 78.0549 136.294 78.4454C136.089 78.8352 135.802 79.1615 135.434 79.4221C135.066 79.6827 134.627 79.8745 134.118 79.9999C133.61 80.1246 133.052 80.1865 132.447 80.1865C130.66 80.1865 129.118 79.6275 127.819 78.5104L128.387 77.5828C128.592 77.7996 128.839 78.0058 129.126 78.2014C129.412 78.3963 129.732 78.567 130.084 78.7135C130.436 78.8601 130.812 78.9741 131.212 79.0557C131.612 79.1365 132.035 79.1781 132.479 79.1781C133.399 79.1781 134.116 79.0127 134.63 78.6811C135.144 78.3502 135.402 77.8487 135.402 77.1756C135.402 76.8184 135.329 76.517 135.183 76.273C135.036 76.029 134.817 75.8167 134.525 75.6385C134.233 75.4595 133.87 75.3046 133.437 75.1747C133.004 75.044 132.5 74.9141 131.927 74.7834C131.321 74.6429 130.79 74.4964 130.336 74.3446C129.881 74.1927 129.497 74.0031 129.183 73.775C128.869 73.5477 128.633 73.2735 128.476 72.9532C128.319 72.6337 128.241 72.2401 128.241 71.7733C128.241 71.2423 128.34 70.7672 128.542 70.3495C128.742 69.9318 129.026 69.5843 129.394 69.3078C129.762 69.0314 130.195 68.8199 130.694 68.6733C131.191 68.5268 131.743 68.4535 132.349 68.4535C133.117 68.4535 133.803 68.5706 134.403 68.8032C135.003 69.0374 135.547 69.3645 136.034 69.7882L135.483 70.6992Z" fill="white"/>
</g>
</g>
</svg>
